<svg width="600" height="300" viewbox = "0 0 600 300"  xmlns="http://www.w3.org/2000/svg">
<!--<json>{
  "glyph": "0330,0330,0330,0330,0330,0332,01504,0336,0336,0330,0333,0336,0341,0337,0337,0330,0336,0336,0341,0337,0331,0331,0331,0333,0337,0337,01500,01500,01500,01500,01502,01501,01501,01501,01501,01502,01500,0331,0332,0332,0332,0332,0332,0332,0332,0332,0332,0332,0332,0332,0332,0336,0331,0337,01500,01500,01500,01502,01501,01501,01501,01501,01502,01500,01500,01500,01500,0331,0332,0332,0332,0332,0332,0332,0332,0332,0332,0332,0332,0332,0332,0336,0331,0337,01503,01403,01403,01403,01401,01401,01401,01401,0336,0330,0333,0336,0341,0337,0331,0333,",
  "x0": 79.99999999999994,
  "y0": 319.42148760330576,
  "unit": 43.72107167325619,
  "width": 600,
  "height": 300,
  "style": {
    "color0": "black",
    "fill0": "black",
    "line0": 3,
    "color1": "black",
    "fill1": "black",
    "line1": 5,
    "color2": "red",
    "fill2": "red",
    "line2": 3,
    "color3": "#FF7900",
    "fill3": "#FF7900",
    "line3": 3,
    "color4": "yellow",
    "fill4": "yellow",
    "line4": 3,
    "color5": "green",
    "fill5": "green",
    "line5": 3,
    "color6": "blue",
    "fill6": "blue",
    "line6": 3,
    "color7": "purple",
    "fill7": "purple",
    "line7": 3
  },
  "shapes": [
    "0220:0320,0336,0336,0331,0333,0337,0200,0336,0330,0332,0336,0336,0330,0332,0332,0332,0332,0337,064,0155,0155,040,0172,0365,0331,0331,0333,0336,0326,0333,0337,0201,0336,0201,0335,0201,0201,0201,0335,0201,0201,0201,0335,0335,0306,0350,0335,0362,0203,0334,0334,0334,0334,0203,0334,0334,0334,0334,0203,0363,0334,0334,0334,0334,0334,0304,0331,0333,0333,0337,0337,0330,0335,0337,0337,0322,0342,0330,0334,0336,0334,0306,0336,0350,0335,0362,0203,0334,0334,0334,0334,0203,0334,0334,0334,0334,0203,0363,0334,0334,0337,0304,0336,0333,0337,0337,0320,",
    "0221:0320,0336,0336,0331,0333,0337,0200,0336,0330,0332,0336,0336,0330,0332,0332,0332,0332,0337,064,0155,0155,040,0172,0365,0331,0331,0333,0336,0326,0333,0337,0201,0336,0201,0335,0201,0201,0201,0335,0201,0201,0201,0335,0335,0306,0350,0335,0362,0203,0334,0334,0334,0334,0203,0334,0334,0334,0334,0203,0363,0334,0334,0334,0334,0334,0304,0331,0333,0333,0337,0337,0330,0335,0337,0337,0322,0334,0334,0336,0330,0337,0342,0330,0334,0336,0334,0306,0336,0350,0335,0362,0203,0334,0334,0334,0334,0203,0334,0334,0334,0334,0203,0363,0334,0334,0337,0304,0336,0333,0337,0337,0320,0335,0335,",
    "0222:0320,0336,0336,0331,0333,0337,0200,0336,0330,0332,0336,0336,0330,0332,0332,0332,0332,0337,064,0155,0155,040,0172,0365,0331,0331,0333,0336,0326,0333,0337,0201,0336,0201,0335,0201,0201,0201,0335,0201,0201,0201,0335,0335,0306,0350,0335,0362,0203,0334,0334,0334,0334,0203,0334,0334,0334,0334,0203,0363,0334,0334,0334,0334,0334,0304,0331,0333,0333,0337,0337,0330,0335,0337,0337,0325,0336,0336,0334,0332,0330,0337,0337,0342,0330,0334,0336,0334,0306,0336,0350,0335,0362,0203,0334,0334,0334,0334,0203,0334,0334,0334,0334,0203,0363,0334,0334,0337,0304,0336,0333,0337,0337,0320,0335,",
    "0223:0320,0336,0336,0331,0333,0337,0200,0336,0330,0332,0336,0336,0330,0332,0332,0332,0332,0337,064,0155,0155,040,0172,0365,0331,0331,0333,0336,0326,0333,0337,0201,0336,0201,0335,0201,0201,0201,0335,0201,0201,0201,0335,0335,0306,0350,0335,0362,0203,0334,0334,0334,0334,0203,0334,0334,0334,0334,0203,0363,0334,0334,0334,0334,0334,0304,0331,0333,0333,0337,0337,0330,0335,0337,0337,0325,0336,0336,0334,0332,0330,0331,0331,0335,0335,0337,0337,0342,0330,0334,0336,0334,0306,0336,0350,0335,0362,0203,0334,0334,0334,0334,0203,0334,0334,0334,0334,0203,0363,0334,0334,0337,0304,0336,0333,0337,0337,0320,0335,0335,0335,",
    "0224:0220,0220,0220,0220,0222,0221,0221,0221,0221,0222,0220,0220,0220,0220,0222,0221,0221,0221,0221,0222,0220,0220,0220,0220,0223,0233,0233,0233,0231,0231,0231,0231,",
    "0225:0304,0330,0335,0335,0305,0350,0311,0362,0203,0335,0335,0335,0335,0336,0203,0335,0335,0203,0354,0335,0335,0335,0322,0335,0335,0330,0334,0334,0334,0336,0334,0342,0335,0342,0330,0335,0335,0335,0336,0335,0201,0334,0334,0334,0334,0201,0335,0335,0335,0335,0336,0201,0334,0334,0334,0334,0201,0335,0335,0335,0336,0335,0201,0334,0334,0334,0334,0342,0335,0331,0337,0331,0337,0331,0335,0335,0337,0335,0331,0335,0336,0201,0335,0335,0335,0335,0201,0334,0334,0334,0334,0336,0201,0335,0335,0335,0335,0201,0334,0334,0334,0334,0336,0201,0335,0335,0335,0335,0201,0335,0335,0335,0331,0337,0337,0337,0337,0337,0320,0304,0335,0335,0331,0305,0350,",
    "0226:0313,0333,0342,0336,0332,0342,0336,0333,0342,0332,0332,0342,0336,0332,0342,0333,0333,0342,0333,0333,0342,0333,0333,0342,0333,0337,0337,0337,",
    "0227:0313,0336,0333,0337,0316,0336,0342,0313,0336,0332,0342,0332,0342,0332,0342,0332,0342,0333,0333,0333,0333,0333,0342,0333,0342,0333,0342,0333,0342,0333,0337,0316,0337,0313,",
    "0230:0336,0336,0331,0331,0335,0336,0332,0337,0337,0337,0322,0342,0330,0335,0335,0306,0350,0335,0336,0336,0362,0203,0334,0334,0334,0334,0203,0334,0334,0334,0334,0203,0363,0334,0334,0337,0304,0337,0336,0333,0336,0330,0336,0330,0337,0337,0337,0320,",
    "0231:0336,0336,0330,0336,0330,0334,0337,0337,0337,0322,0342,0330,0335,0335,0306,0350,0334,0336,0336,0362,0203,0335,0335,0335,0335,0203,0335,0335,0335,0335,0203,0363,0335,0335,0304,0337,0337,0336,0331,0332,0336,0336,0330,0337,0337,0337,0320,",
    "0232:0336,0333,0336,0336,0332,0337,0337,0337,0325,0342,0330,0335,0335,0306,0350,0335,0336,0336,0362,0203,0334,0334,0334,0334,0203,0334,0334,0334,0334,0203,0363,0335,0337,0337,0304,0336,0330,0332,0336,0336,0333,0337,0337,0337,0320,",
    "0233:0336,0333,0335,0335,0337,0325,0342,0330,0335,0335,0306,0350,0335,0336,0336,0362,0203,0334,0334,0334,0334,0203,0334,0334,0334,0334,0203,0363,0334,0334,0334,0334,0334,0337,0304,0320,0336,0331,0331,0332,0332,0337,0337,",
    "0234:0336,0336,0336,0330,0362,0203,0203,0334,0203,0335,0203,0203,0335,0203,0334,0203,0203,0203,0334,0203,0203,0203,0203,0203,0203,0203,0334,0203,0203,0203,0335,0203,0334,0203,0203,0334,0203,0335,0203,0203,0334,0203,0203,0335,0203,0334,0203,0203,0334,0203,0335,0203,0203,0203,0354,0334,0331,0337,0337,0337,",
    "0235:0322,0232,0323,0232,0324,0232,0325,0232,0326,0232,0327,0232,",
    "0236:0313,0336,0316,0336,0332,0336,0347,0337,0333,0333,0336,0347,0337,0332,0337,0313,0337,",
    "0237:0200,0336,0330,0332,0336,0330,0325,0235,0331,0331,0335,0335,0235,0331,0322,0335,0330,0235,0331,0335,0335,0330,0235,0334,0326,0330,0235,0331,0331,0335,0335,0235,0333,0333,0325,0336,0341,0335,0335,0330,0330,0330,0330,0322,0341,0320,0337,0350,0335,0304,0236,0350,0335,0304,0330,0236,0330,0350,0335,0304,0236,0350,0335,0304,0330,0236,0330,0350,0335,0304,0236,0350,0335,0304,0330,0236,0330,0350,0335,0304,0236,0350,0335,0330,0304,0236,0333,0331,0333,0336,0331,0333,0337,0314,0337,0200,0336,0313,0336,0331,0333,0337,0337,0337,0336,0336,0330,0332,0327,0336,0330,0332,0336,0336,0332,0332,0332,0332,0331,0331,0331,0332,0332,0332,0333,0333,070,040,0147,0162,0145,0145,0156,0365,0332,0332,0332,0332,0332,0332,0332,0332,061,061,040,0147,0162,0145,0171,0365,061,060,040,0160,0165,0162,0160,0154,0145,0330,0330,0330,0330,0330,0330,0332,0332,0365,061,062,040,0167,0150,0151,0164,0145,0330,0330,0330,0330,0330,0330,0330,0365,071,040,0142,0154,0165,0145,0333,0333,0333,0333,0333,0333,0333,0333,0333,0365,065,040,0162,0145,0144,0333,0333,0333,0333,0333,0333,0333,0333,0333,0365,067,040,0171,0145,0154,0154,0157,0167,0331,0331,0331,0331,0331,0332,0365,066,040,0157,0162,0141,0156,0147,0145,0331,0331,0331,0331,0331,0331,0331,0331,0365,0331,0331,0331,0331,0331,0331,0333,0333,0333,0333,0333,0331,0331,0333,0333,0331,0333,0333,0333,0337,0337,0337,0337,0337,0320,0336,0332,0336,0336,0336,0332,0201,0201,0201,0335,0201,0201,0335,0201,0201,0201,0335,0335,0333,0333,0333,0333,0333,0333,0333,0337,0337,0337,0337,",
    "01220:0333,0200,0336,0330,0332,0331,0332,0336,0330,0330,0333,0337,0220,0336,0331,0331,0336,0337,0337,0337,",
    "01221:0333,0200,0336,0330,0336,0332,0337,0221,0331,0333,0333,0336,0337,0337,",
    "01222:0333,0200,0336,0330,0332,0336,0331,0337,0222,0333,0331,0331,0337,",
    "01223:0333,0200,0336,0330,0332,0336,0330,0337,0223,0333,0337,",
    "01224:0333,0200,0336,0330,0332,0336,0331,0332,0336,0331,0332,0224,0337,0333,0333,0333,0336,0333,0331,0337,0337,0337,",
    "01225:0333,0225,0313,0304,",
    "01226:0226,0200,",
    "01227:0227,0200,",
    "01230:0333,0200,0336,0332,0330,0336,0332,0330,0337,0230,0331,0336,0331,0332,0333,0337,0337,",
    "01231:0333,0200,0336,0330,0332,0336,0333,0337,0231,0333,0331,0333,0337,",
    "01232:0333,0200,0336,0330,0332,0336,0331,0332,0337,0232,0331,0333,0336,0331,0333,0331,0337,0337,",
    "01233:0333,0200,0336,0330,0332,0336,0330,0332,0337,0233,0333,0336,0333,0337,0337,",
    "01234:0333,0234,",
    "01235:0333,0200,0336,0330,0332,0235,0331,0333,0337,",
    "01236:0333,0200,0336,0330,0332,0236,0331,0333,0337,",
    "01237:0333,0200,0336,0330,0332,0336,0333,0337,0221,0333,0331,0333,0337,",
    "0240:0220,0336,0331,0333,0336,0321,0335,0342,0335,0335,0342,0335,0330,0330,0332,0332,0337,0337,",
    "01240:0333,0200,0336,0330,0332,0210,0240,0211,0333,0331,0337,",
    "0241:0220,0336,0321,0343,0332,0350,0335,0336,0342,0334,0334,0342,0335,0304,0337,0333,0337,",
    "01241:0333,0200,0336,0332,0330,0210,0241,0211,0333,0331,0337,",
    "0242:0220,0321,0336,0343,0333,0336,0350,0335,0342,0334,0334,0342,0335,0337,0304,0332,0337,",
    "01242:0333,0200,0336,0330,0332,0210,0242,0211,0333,0331,0337,",
    "0243:0220,0336,0331,0332,0336,0321,0343,0332,0350,0334,0336,0342,0335,0335,0342,0337,0334,0334,0335,0304,0332,0330,0330,0337,0337,0333,",
    "01243:0333,0200,0336,0330,0332,0210,0243,0211,0333,0331,0337,",
    "0244:0220,0336,0331,0333,0336,0321,0343,0333,0350,0336,0335,0342,0334,0334,0342,0335,0337,0304,0333,0330,0330,0337,0337,0332,",
    "01244:0333,0200,0336,0330,0332,0210,0244,0211,0333,0331,0337,",
    "0245:0210,0332,0332,0362,0335,0203,0203,0203,0203,0334,0203,0363,0332,0332,0331,0211,",
    "01245:0333,0200,0336,0330,0332,0336,0245,0337,0333,0331,0337,",
    "0246:0210,0332,0332,0335,0306,0336,0330,0335,0335,0335,0321,0362,0203,0335,0335,0203,0364,0331,0350,0335,0337,0366,0333,0333,0333,0333,0334,0334,0334,0334,0367,0335,0336,0342,0334,0334,0342,0330,0330,0330,0330,0335,0335,0335,0304,0337,0211,",
    "01246:0333,0200,0336,0330,0332,0336,0246,",
    "0247:0330,0332,0336,0332,0336,0221,0333,0333,0333,0222,0333,0333,0333,0223,0333,0333,0333,0225,0333,0331,0331,0331,0332,0332,0332,0332,0332,0332,0332,0332,0332,0332,0332,0332,0333,0333,0226,0331,0331,0331,0333,0333,0333,0333,0333,0333,0333,0333,0333,0333,0333,0333,0333,0330,0333,0330,0330,0333,0330,0331,0332,0332,0332,0332,0332,0332,0332,0332,0332,0332,0332,0332,0227,0333,0333,0333,0230,0333,0331,0331,0331,0331,0332,0332,0332,0330,0332,0332,0332,0332,0332,0332,0333,0333,0231,0333,0333,0333,0232,0331,0333,0330,0333,0333,0233,0333,0333,0333,0234,0330,0330,0332,0330,0332,0332,0337,0337,",
    "01247:0333,0200,0336,0330,0332,0220,0336,0247,0337,0331,0333,0337,"
  ]
}</json>-->	<path d = "M80 101 L80 57 L36 57 L36 101 L80 101 Z" stroke = "#000000" stroke-width = "3" fill = "none" /><circle cx="58" cy = "79" r = "3" stroke = "#000000" stroke-width = "3" fill = "#000000" />
<circle cx="58" cy = "73" r = "3" stroke = "#000000" stroke-width = "3" fill = "#000000" />
<circle cx="58" cy = "68" r = "3" stroke = "#000000" stroke-width = "3" fill = "#000000" />
<circle cx="58" cy = "84" r = "3" stroke = "#000000" stroke-width = "3" fill = "#000000" />
<circle cx="58" cy = "90" r = "3" stroke = "#000000" stroke-width = "3" fill = "#000000" />
<circle cx="64" cy = "90" r = "3" stroke = "#000000" stroke-width = "3" fill = "#000000" />
<circle cx="64" cy = "84" r = "3" stroke = "#000000" stroke-width = "3" fill = "#000000" />
<circle cx="64" cy = "79" r = "3" stroke = "#000000" stroke-width = "3" fill = "#000000" />
<circle cx="64" cy = "73" r = "3" stroke = "#000000" stroke-width = "3" fill = "#000000" />
<circle cx="64" cy = "68" r = "3" stroke = "#000000" stroke-width = "3" fill = "#000000" />
<circle cx="69" cy = "68" r = "3" stroke = "#000000" stroke-width = "3" fill = "#000000" />
<circle cx="69" cy = "73" r = "3" stroke = "#000000" stroke-width = "3" fill = "#000000" />
<circle cx="69" cy = "79" r = "3" stroke = "#000000" stroke-width = "3" fill = "#000000" />
<circle cx="69" cy = "84" r = "3" stroke = "#000000" stroke-width = "3" fill = "#000000" />
<circle cx="69" cy = "90" r = "3" stroke = "#000000" stroke-width = "3" fill = "#000000" />
<circle cx="53" cy = "90" r = "3" stroke = "#000000" stroke-width = "3" fill = "#000000" />
<circle cx="53" cy = "84" r = "3" stroke = "#000000" stroke-width = "3" fill = "#000000" />
<circle cx="53" cy = "79" r = "3" stroke = "#000000" stroke-width = "3" fill = "#000000" />
<circle cx="53" cy = "73" r = "3" stroke = "#000000" stroke-width = "3" fill = "#000000" />
<circle cx="53" cy = "68" r = "3" stroke = "#000000" stroke-width = "3" fill = "#000000" />
<circle cx="47" cy = "68" r = "3" stroke = "#000000" stroke-width = "3" fill = "#000000" />
<circle cx="47" cy = "73" r = "3" stroke = "#000000" stroke-width = "3" fill = "#000000" />
<circle cx="47" cy = "79" r = "3" stroke = "#000000" stroke-width = "3" fill = "#000000" />
<circle cx="47" cy = "84" r = "3" stroke = "#000000" stroke-width = "3" fill = "#000000" />
<circle cx="47" cy = "90" r = "3" stroke = "#000000" stroke-width = "3" fill = "#000000" />
<circle cx="91" cy = "90" r = "5.465133959157024" stroke = "#000000" stroke-width = "3" fill = "none" />
<circle cx="91" cy = "68" r = "5.465133959157024" stroke = "#000000" stroke-width = "3" fill = "none" />
	<path d = "M146 101 L146 57 L102 57 L102 101 L146 101 Z" stroke = "#000000" stroke-width = "3" fill = "none" />    <line x1="107" y1="79" x2="107" y2="68" style="stroke:#000000;stroke-width:3" />
    <line x1="107" y1="68" x2="118" y2="68" style="stroke:#000000;stroke-width:3" />
    <line x1="118" y1="68" x2="118" y2="79" style="stroke:#000000;stroke-width:3" />
    <line x1="118" y1="79" x2="140" y2="79" style="stroke:#ff0000;stroke-width:3" />
    <line x1="140" y1="79" x2="132" y2="71" style="stroke:#ff0000;stroke-width:3" />
    <line x1="140" y1="79" x2="132" y2="87" style="stroke:#ff0000;stroke-width:3" />
	<path d = "M189 101 L189 57 L146 57 L146 101 L189 101 Z" stroke = "#000000" stroke-width = "3" fill = "none" />    <line x1="151" y1="79" x2="151" y2="68" style="stroke:#000000;stroke-width:3" />
    <line x1="151" y1="68" x2="162" y2="68" style="stroke:#000000;stroke-width:3" />
    <line x1="162" y1="68" x2="162" y2="79" style="stroke:#000000;stroke-width:3" />
    <line x1="162" y1="79" x2="184" y2="79" style="stroke:#ff0000;stroke-width:3" />
    <line x1="184" y1="79" x2="176" y2="71" style="stroke:#ff0000;stroke-width:3" />
    <line x1="184" y1="79" x2="176" y2="87" style="stroke:#ff0000;stroke-width:3" />
	<path d = "M233 101 L233 57 L189 57 L189 101 L233 101 Z" stroke = "#000000" stroke-width = "3" fill = "none" />    <line x1="195" y1="79" x2="195" y2="68" style="stroke:#000000;stroke-width:3" />
    <line x1="195" y1="68" x2="206" y2="68" style="stroke:#000000;stroke-width:3" />
    <line x1="206" y1="68" x2="206" y2="79" style="stroke:#000000;stroke-width:3" />
    <line x1="206" y1="79" x2="228" y2="79" style="stroke:#ff0000;stroke-width:3" />
    <line x1="228" y1="79" x2="220" y2="71" style="stroke:#ff0000;stroke-width:3" />
    <line x1="228" y1="79" x2="220" y2="87" style="stroke:#ff0000;stroke-width:3" />
	<path d = "M277 101 L277 57 L233 57 L233 101 L277 101 Z" stroke = "#000000" stroke-width = "3" fill = "none" />    <line x1="238" y1="79" x2="238" y2="68" style="stroke:#000000;stroke-width:3" />
    <line x1="238" y1="68" x2="249" y2="68" style="stroke:#000000;stroke-width:3" />
    <line x1="249" y1="68" x2="249" y2="79" style="stroke:#000000;stroke-width:3" />
    <line x1="249" y1="79" x2="271" y2="79" style="stroke:#ff0000;stroke-width:3" />
    <line x1="271" y1="79" x2="264" y2="71" style="stroke:#ff0000;stroke-width:3" />
    <line x1="271" y1="79" x2="264" y2="87" style="stroke:#ff0000;stroke-width:3" />
	<path d = "M320 101 L320 57 L277 57 L277 101 L320 101 Z" stroke = "#000000" stroke-width = "3" fill = "none" />    <line x1="310" y1="90" x2="310" y2="79" style="stroke:#000000;stroke-width:3" />
    <line x1="310" y1="79" x2="299" y2="79" style="stroke:#000000;stroke-width:3" />
    <line x1="299" y1="79" x2="299" y2="90" style="stroke:#000000;stroke-width:3" />
    <line x1="299" y1="90" x2="293" y2="90" style="stroke:#000000;stroke-width:3" />
    <line x1="293" y1="90" x2="293" y2="68" style="stroke:#008000;stroke-width:3" />
    <line x1="293" y1="68" x2="285" y2="76" style="stroke:#008000;stroke-width:3" />
    <line x1="293" y1="68" x2="301" y2="76" style="stroke:#008000;stroke-width:3" />
	<path d = "M364 101 L364 57 L320 57 L320 101 L364 101 Z" stroke = "#000000" stroke-width = "3" fill = "none" />    <line x1="359" y1="79" x2="359" y2="68" style="stroke:#000000;stroke-width:3" />
    <line x1="359" y1="68" x2="348" y2="68" style="stroke:#000000;stroke-width:3" />
    <line x1="348" y1="68" x2="348" y2="79" style="stroke:#000000;stroke-width:3" />
    <line x1="348" y1="79" x2="326" y2="79" style="stroke:#ff0000;stroke-width:3" />
    <line x1="326" y1="79" x2="334" y2="71" style="stroke:#ff0000;stroke-width:3" />
    <line x1="326" y1="79" x2="334" y2="87" style="stroke:#ff0000;stroke-width:3" />
	<path d = "M408 101 L408 57 L364 57 L364 101 L408 101 Z" stroke = "#000000" stroke-width = "3" fill = "none" />    <line x1="402" y1="79" x2="402" y2="68" style="stroke:#000000;stroke-width:3" />
    <line x1="402" y1="68" x2="392" y2="68" style="stroke:#000000;stroke-width:3" />
    <line x1="392" y1="68" x2="392" y2="79" style="stroke:#000000;stroke-width:3" />
    <line x1="392" y1="79" x2="370" y2="79" style="stroke:#ff0000;stroke-width:3" />
    <line x1="370" y1="79" x2="377" y2="71" style="stroke:#ff0000;stroke-width:3" />
    <line x1="370" y1="79" x2="377" y2="87" style="stroke:#ff0000;stroke-width:3" />
	<path d = "M452 101 L452 57 L408 57 L408 101 L452 101 Z" stroke = "#000000" stroke-width = "3" fill = "none" />    <line x1="446" y1="79" x2="446" y2="68" style="stroke:#000000;stroke-width:3" />
    <line x1="446" y1="68" x2="435" y2="68" style="stroke:#000000;stroke-width:3" />
    <line x1="435" y1="68" x2="435" y2="79" style="stroke:#000000;stroke-width:3" />
    <line x1="435" y1="79" x2="413" y2="79" style="stroke:#ff0000;stroke-width:3" />
    <line x1="413" y1="79" x2="421" y2="71" style="stroke:#ff0000;stroke-width:3" />
    <line x1="413" y1="79" x2="421" y2="87" style="stroke:#ff0000;stroke-width:3" />
	<path d = "M495 101 L495 57 L452 57 L452 101 L495 101 Z" stroke = "#000000" stroke-width = "3" fill = "none" />    <line x1="490" y1="79" x2="490" y2="68" style="stroke:#000000;stroke-width:3" />
    <line x1="490" y1="68" x2="479" y2="68" style="stroke:#000000;stroke-width:3" />
    <line x1="479" y1="68" x2="479" y2="79" style="stroke:#000000;stroke-width:3" />
    <line x1="479" y1="79" x2="457" y2="79" style="stroke:#ff0000;stroke-width:3" />
    <line x1="457" y1="79" x2="465" y2="71" style="stroke:#ff0000;stroke-width:3" />
    <line x1="457" y1="79" x2="465" y2="87" style="stroke:#ff0000;stroke-width:3" />
	<path d = "M539 101 L539 57 L495 57 L495 101 L539 101 Z" stroke = "#000000" stroke-width = "3" fill = "none" />    <line x1="528" y1="90" x2="528" y2="79" style="stroke:#000000;stroke-width:3" />
    <line x1="528" y1="79" x2="517" y2="79" style="stroke:#000000;stroke-width:3" />
    <line x1="517" y1="79" x2="517" y2="90" style="stroke:#000000;stroke-width:3" />
    <line x1="517" y1="90" x2="512" y2="90" style="stroke:#000000;stroke-width:3" />
    <line x1="512" y1="90" x2="512" y2="68" style="stroke:#008000;stroke-width:3" />
    <line x1="512" y1="68" x2="504" y2="76" style="stroke:#008000;stroke-width:3" />
    <line x1="512" y1="68" x2="519" y2="76" style="stroke:#008000;stroke-width:3" />
	<path d = "M583 101 L583 57 L539 57 L539 101 L583 101 Z" stroke = "#000000" stroke-width = "3" fill = "none" />    <line x1="545" y1="79" x2="545" y2="68" style="stroke:#000000;stroke-width:3" />
    <line x1="545" y1="68" x2="555" y2="68" style="stroke:#000000;stroke-width:3" />
    <line x1="555" y1="68" x2="555" y2="79" style="stroke:#000000;stroke-width:3" />
    <line x1="555" y1="79" x2="577" y2="79" style="stroke:#ff0000;stroke-width:3" />
    <line x1="577" y1="79" x2="570" y2="71" style="stroke:#ff0000;stroke-width:3" />
    <line x1="577" y1="79" x2="570" y2="87" style="stroke:#ff0000;stroke-width:3" />
	<path d = "M58 166 L58 123 L14 123 L14 166 L58 166 Z" stroke = "#000000" stroke-width = "3" fill = "none" />    <line x1="20" y1="145" x2="20" y2="134" style="stroke:#000000;stroke-width:3" />
    <line x1="20" y1="134" x2="31" y2="134" style="stroke:#000000;stroke-width:3" />
    <line x1="31" y1="134" x2="31" y2="145" style="stroke:#000000;stroke-width:3" />
    <line x1="31" y1="145" x2="53" y2="145" style="stroke:#ff0000;stroke-width:3" />
    <line x1="53" y1="145" x2="45" y2="137" style="stroke:#ff0000;stroke-width:3" />
    <line x1="53" y1="145" x2="45" y2="152" style="stroke:#ff0000;stroke-width:3" />
	<path d = "M102 166 L102 123 L58 123 L58 166 L102 166 Z" stroke = "#000000" stroke-width = "3" fill = "none" />    <line x1="64" y1="145" x2="64" y2="134" style="stroke:#000000;stroke-width:3" />
    <line x1="64" y1="134" x2="75" y2="134" style="stroke:#000000;stroke-width:3" />
    <line x1="75" y1="134" x2="75" y2="145" style="stroke:#000000;stroke-width:3" />
    <line x1="75" y1="145" x2="96" y2="145" style="stroke:#ff0000;stroke-width:3" />
    <line x1="96" y1="145" x2="89" y2="137" style="stroke:#ff0000;stroke-width:3" />
    <line x1="96" y1="145" x2="89" y2="152" style="stroke:#ff0000;stroke-width:3" />
	<path d = "M146 166 L146 123 L102 123 L102 166 L146 166 Z" stroke = "#000000" stroke-width = "3" fill = "none" />    <line x1="107" y1="145" x2="107" y2="134" style="stroke:#000000;stroke-width:3" />
    <line x1="107" y1="134" x2="118" y2="134" style="stroke:#000000;stroke-width:3" />
    <line x1="118" y1="134" x2="118" y2="145" style="stroke:#000000;stroke-width:3" />
    <line x1="118" y1="145" x2="140" y2="145" style="stroke:#ff0000;stroke-width:3" />
    <line x1="140" y1="145" x2="132" y2="137" style="stroke:#ff0000;stroke-width:3" />
    <line x1="140" y1="145" x2="132" y2="152" style="stroke:#ff0000;stroke-width:3" />
	<path d = "M189 166 L189 123 L146 123 L146 166 L189 166 Z" stroke = "#000000" stroke-width = "3" fill = "none" />    <line x1="178" y1="155" x2="178" y2="145" style="stroke:#000000;stroke-width:3" />
    <line x1="178" y1="145" x2="167" y2="145" style="stroke:#000000;stroke-width:3" />
    <line x1="167" y1="145" x2="167" y2="155" style="stroke:#000000;stroke-width:3" />
    <line x1="167" y1="155" x2="162" y2="155" style="stroke:#000000;stroke-width:3" />
    <line x1="162" y1="155" x2="162" y2="134" style="stroke:#008000;stroke-width:3" />
    <line x1="162" y1="134" x2="154" y2="141" style="stroke:#008000;stroke-width:3" />
    <line x1="162" y1="134" x2="170" y2="141" style="stroke:#008000;stroke-width:3" />
	<path d = "M233 166 L233 123 L189 123 L189 166 L233 166 Z" stroke = "#000000" stroke-width = "3" fill = "none" />    <line x1="228" y1="145" x2="228" y2="134" style="stroke:#000000;stroke-width:3" />
    <line x1="228" y1="134" x2="217" y2="134" style="stroke:#000000;stroke-width:3" />
    <line x1="217" y1="134" x2="217" y2="145" style="stroke:#000000;stroke-width:3" />
    <line x1="217" y1="145" x2="195" y2="145" style="stroke:#ff0000;stroke-width:3" />
    <line x1="195" y1="145" x2="202" y2="137" style="stroke:#ff0000;stroke-width:3" />
    <line x1="195" y1="145" x2="202" y2="152" style="stroke:#ff0000;stroke-width:3" />
	<path d = "M277 166 L277 123 L233 123 L233 166 L277 166 Z" stroke = "#000000" stroke-width = "3" fill = "none" />    <line x1="271" y1="145" x2="271" y2="134" style="stroke:#000000;stroke-width:3" />
    <line x1="271" y1="134" x2="260" y2="134" style="stroke:#000000;stroke-width:3" />
    <line x1="260" y1="134" x2="260" y2="145" style="stroke:#000000;stroke-width:3" />
    <line x1="260" y1="145" x2="238" y2="145" style="stroke:#ff0000;stroke-width:3" />
    <line x1="238" y1="145" x2="246" y2="137" style="stroke:#ff0000;stroke-width:3" />
    <line x1="238" y1="145" x2="246" y2="152" style="stroke:#ff0000;stroke-width:3" />
	<path d = "M320 166 L320 123 L277 123 L277 166 L320 166 Z" stroke = "#000000" stroke-width = "3" fill = "none" />    <line x1="315" y1="145" x2="315" y2="134" style="stroke:#000000;stroke-width:3" />
    <line x1="315" y1="134" x2="304" y2="134" style="stroke:#000000;stroke-width:3" />
    <line x1="304" y1="134" x2="304" y2="145" style="stroke:#000000;stroke-width:3" />
    <line x1="304" y1="145" x2="282" y2="145" style="stroke:#ff0000;stroke-width:3" />
    <line x1="282" y1="145" x2="290" y2="137" style="stroke:#ff0000;stroke-width:3" />
    <line x1="282" y1="145" x2="290" y2="152" style="stroke:#ff0000;stroke-width:3" />
	<path d = "M364 166 L364 123 L320 123 L320 166 L364 166 Z" stroke = "#000000" stroke-width = "3" fill = "none" />    <line x1="359" y1="145" x2="359" y2="134" style="stroke:#000000;stroke-width:3" />
    <line x1="359" y1="134" x2="348" y2="134" style="stroke:#000000;stroke-width:3" />
    <line x1="348" y1="134" x2="348" y2="145" style="stroke:#000000;stroke-width:3" />
    <line x1="348" y1="145" x2="326" y2="145" style="stroke:#ff0000;stroke-width:3" />
    <line x1="326" y1="145" x2="334" y2="137" style="stroke:#ff0000;stroke-width:3" />
    <line x1="326" y1="145" x2="334" y2="152" style="stroke:#ff0000;stroke-width:3" />
	<path d = "M408 166 L408 123 L364 123 L364 166 L408 166 Z" stroke = "#000000" stroke-width = "3" fill = "none" />    <line x1="397" y1="155" x2="397" y2="145" style="stroke:#000000;stroke-width:3" />
    <line x1="397" y1="145" x2="386" y2="145" style="stroke:#000000;stroke-width:3" />
    <line x1="386" y1="145" x2="386" y2="155" style="stroke:#000000;stroke-width:3" />
    <line x1="386" y1="155" x2="381" y2="155" style="stroke:#000000;stroke-width:3" />
    <line x1="381" y1="155" x2="381" y2="134" style="stroke:#008000;stroke-width:3" />
    <line x1="381" y1="134" x2="373" y2="141" style="stroke:#008000;stroke-width:3" />
    <line x1="381" y1="134" x2="388" y2="141" style="stroke:#008000;stroke-width:3" />
	<path d = "M452 166 L452 123 L408 123 L408 166 L452 166 Z" stroke = "#000000" stroke-width = "3" fill = "none" />    <line x1="413" y1="145" x2="413" y2="134" style="stroke:#000000;stroke-width:3" />
    <line x1="413" y1="134" x2="424" y2="134" style="stroke:#000000;stroke-width:3" />
    <line x1="424" y1="134" x2="424" y2="145" style="stroke:#000000;stroke-width:3" />
    <line x1="424" y1="145" x2="446" y2="145" style="stroke:#ff0000;stroke-width:3" />
    <line x1="446" y1="145" x2="438" y2="137" style="stroke:#ff0000;stroke-width:3" />
    <line x1="446" y1="145" x2="438" y2="152" style="stroke:#ff0000;stroke-width:3" />
	<path d = "M495 166 L495 123 L452 123 L452 166 L495 166 Z" stroke = "#000000" stroke-width = "3" fill = "none" />    <line x1="457" y1="145" x2="457" y2="134" style="stroke:#000000;stroke-width:3" />
    <line x1="457" y1="134" x2="468" y2="134" style="stroke:#000000;stroke-width:3" />
    <line x1="468" y1="134" x2="468" y2="145" style="stroke:#000000;stroke-width:3" />
    <line x1="468" y1="145" x2="490" y2="145" style="stroke:#ff0000;stroke-width:3" />
    <line x1="490" y1="145" x2="482" y2="137" style="stroke:#ff0000;stroke-width:3" />
    <line x1="490" y1="145" x2="482" y2="152" style="stroke:#ff0000;stroke-width:3" />
	<path d = "M539 166 L539 123 L495 123 L495 166 L539 166 Z" stroke = "#000000" stroke-width = "3" fill = "none" />    <line x1="501" y1="145" x2="501" y2="134" style="stroke:#000000;stroke-width:3" />
    <line x1="501" y1="134" x2="512" y2="134" style="stroke:#000000;stroke-width:3" />
    <line x1="512" y1="134" x2="512" y2="145" style="stroke:#000000;stroke-width:3" />
    <line x1="512" y1="145" x2="534" y2="145" style="stroke:#ff0000;stroke-width:3" />
    <line x1="534" y1="145" x2="526" y2="137" style="stroke:#ff0000;stroke-width:3" />
    <line x1="534" y1="145" x2="526" y2="152" style="stroke:#ff0000;stroke-width:3" />
	<path d = "M583 166 L583 123 L539 123 L539 166 L583 166 Z" stroke = "#000000" stroke-width = "3" fill = "none" />    <line x1="545" y1="145" x2="545" y2="134" style="stroke:#000000;stroke-width:3" />
    <line x1="545" y1="134" x2="555" y2="134" style="stroke:#000000;stroke-width:3" />
    <line x1="555" y1="134" x2="555" y2="145" style="stroke:#000000;stroke-width:3" />
    <line x1="555" y1="145" x2="577" y2="145" style="stroke:#ff0000;stroke-width:3" />
    <line x1="577" y1="145" x2="570" y2="137" style="stroke:#ff0000;stroke-width:3" />
    <line x1="577" y1="145" x2="570" y2="152" style="stroke:#ff0000;stroke-width:3" />
	<path d = "M58 232 L58 188 L14 188 L14 232 L58 232 Z" stroke = "#000000" stroke-width = "3" fill = "none" />    <line x1="47" y1="205" x2="47" y2="194" style="stroke:#000000;stroke-width:3" />
    <line x1="47" y1="194" x2="36" y2="194" style="stroke:#000000;stroke-width:3" />
    <line x1="36" y1="194" x2="36" y2="205" style="stroke:#000000;stroke-width:3" />
    <line x1="36" y1="205" x2="31" y2="205" style="stroke:#000000;stroke-width:3" />
    <line x1="31" y1="205" x2="31" y2="227" style="stroke:#008000;stroke-width:3" />
    <line x1="31" y1="227" x2="39" y2="219" style="stroke:#008000;stroke-width:3" />
    <line x1="31" y1="227" x2="23" y2="219" style="stroke:#008000;stroke-width:3" />
	<path d = "M102 232 L102 188 L58 188 L58 232 L102 232 Z" stroke = "#000000" stroke-width = "3" fill = "none" /><circle cx="80" cy = "210" r = "3" stroke = "#008000" stroke-width = "3" fill = "#008000" />
    <line x1="80" y1="210" x2="61" y2="221" style="stroke:#008000;stroke-width:3" />
	<path d = "M61 221 L67 221 L64 216 L61 221 Z" stroke = "#008000" stroke-width = "3" fill = "#008000" /> M80,210 C61,221 	<path d = "M146 232 L146 188 L102 188 L102 232 L146 232 Z" stroke = "#000000" stroke-width = "3" fill = "none" /><circle cx="124" cy = "210" r = "3" stroke = "#008000" stroke-width = "3" fill = "#008000" />
    <line x1="124" y1="210" x2="105" y2="221" style="stroke:#008000;stroke-width:3" />
	<path d = "M105 221 L110 221 L108 216 L105 221 Z" stroke = "#008000" stroke-width = "3" fill = "#008000" /> M124,210 C105,221 	<path d = "M189 232 L189 188 L146 188 L146 232 L189 232 Z" stroke = "#000000" stroke-width = "3" fill = "none" /><circle cx="167" cy = "210" r = "3" stroke = "#008000" stroke-width = "3" fill = "#008000" />
    <line x1="167" y1="210" x2="149" y2="221" style="stroke:#008000;stroke-width:3" />
	<path d = "M149 221 L154 221 L151 216 L149 221 Z" stroke = "#008000" stroke-width = "3" fill = "#008000" /> M167,210 C149,221 	<path d = "M233 232 L233 188 L189 188 L189 232 L233 232 Z" stroke = "#000000" stroke-width = "3" fill = "none" />    <line x1="211" y1="210" x2="189" y2="210" style="stroke:#ff0000;stroke-width:3" />
	<path d = "M189 210 L194 213 L194 207 L189 210 Z" stroke = "#ff0000" stroke-width = "3" fill = "#ff0000" /> M211,210 C189,210 	<path d = "M277 232 L277 188 L233 188 L233 232 L277 232 Z" stroke = "#000000" stroke-width = "3" fill = "none" />    <line x1="255" y1="210" x2="233" y2="210" style="stroke:#ff0000;stroke-width:3" />
	<path d = "M233 210 L238 213 L238 207 L233 210 Z" stroke = "#ff0000" stroke-width = "3" fill = "#ff0000" /> M255,210 C233,210 	<path d = "M320 232 L320 188 L277 188 L277 232 L320 232 Z" stroke = "#000000" stroke-width = "3" fill = "none" />    <line x1="299" y1="210" x2="277" y2="210" style="stroke:#ff0000;stroke-width:3" />
	<path d = "M277 210 L281 213 L281 207 L277 210 Z" stroke = "#ff0000" stroke-width = "3" fill = "#ff0000" /> M299,210 C277,210 	<path d = "M364 232 L364 188 L320 188 L320 232 L364 232 Z" stroke = "#000000" stroke-width = "3" fill = "none" />    <line x1="342" y1="210" x2="320" y2="210" style="stroke:#ff0000;stroke-width:3" />
	<path d = "M320 210 L325 213 L325 207 L320 210 Z" stroke = "#ff0000" stroke-width = "3" fill = "#ff0000" /> M342,210 C320,210 <circle cx="386" cy = "210" r = "10.930267918314048" stroke = "#000000" stroke-width = "3" fill = "none" />
</svg>