<svg width="710" height="710" viewbox = "0 0 710 710"  xmlns="http://www.w3.org/2000/svg">
<!--<json>{
  "glyph": "0330,0330,0330,0330,0330,0332,01504,0336,0336,0330,0333,0336,0341,0337,0337,0330,0336,0336,0341,0337,0331,0331,0331,0333,0337,0337,01500,01500,01500,01500,01502,01501,01501,01501,01501,01502,01500,0331,0332,0332,0332,0332,0332,0332,0332,0332,0332,0332,0332,0332,0332,0336,0331,0337,01500,01500,01500,01502,01501,01501,01501,01501,01502,01500,01500,01500,01500,0331,0332,0332,0332,0332,0332,0332,0332,0332,0332,0332,0332,0332,0332,0336,0331,0337,01503,01403,01403,01403,01401,01401,01401,01401,0336,0330,0333,0336,0341,0337,0331,0333,0337,",
  "x0": 88.7999999999999,
  "y0": 355,
  "unit": 52.90249672464,
  "width": 710,
  "height": 710,
  "style": {
    "color0": "black",
    "fill0": "black",
    "line0": 3,
    "color1": "black",
    "fill1": "black",
    "line1": 5,
    "color2": "red",
    "fill2": "red",
    "line2": 3,
    "color3": "#FF7900",
    "fill3": "#FF7900",
    "line3": 3,
    "color4": "yellow",
    "fill4": "yellow",
    "line4": 3,
    "color5": "green",
    "fill5": "green",
    "line5": 3,
    "color6": "blue",
    "fill6": "blue",
    "line6": 3,
    "color7": "purple",
    "fill7": "purple",
    "line7": 3
  },
  "shapes": [
    "0220:0320,0336,0336,0331,0333,0337,0200,0336,0330,0332,0336,0336,0330,0332,0332,0332,0332,0337,064,0155,0155,040,0172,0365,0331,0331,0333,0336,0326,0333,0337,0201,0336,0201,0335,0201,0201,0201,0335,0201,0201,0201,0335,0335,0306,0350,0335,0362,0203,0334,0334,0334,0334,0203,0334,0334,0334,0334,0203,0363,0334,0334,0334,0334,0334,0304,0331,0333,0333,0337,0337,0330,0335,0337,0337,0322,0342,0330,0334,0336,0334,0306,0336,0350,0335,0362,0203,0334,0334,0334,0334,0203,0334,0334,0334,0334,0203,0363,0334,0334,0337,0304,0336,0333,0337,0337,0320,",
    "0221:0320,0336,0336,0331,0333,0337,0200,0336,0330,0332,0336,0336,0330,0332,0332,0332,0332,0337,064,0155,0155,040,0172,0365,0331,0331,0333,0336,0326,0333,0337,0201,0336,0201,0335,0201,0201,0201,0335,0201,0201,0201,0335,0335,0306,0350,0335,0362,0203,0334,0334,0334,0334,0203,0334,0334,0334,0334,0203,0363,0334,0334,0334,0334,0334,0304,0331,0333,0333,0337,0337,0330,0335,0337,0337,0322,0334,0334,0336,0330,0337,0342,0330,0334,0336,0334,0306,0336,0350,0335,0362,0203,0334,0334,0334,0334,0203,0334,0334,0334,0334,0203,0363,0334,0334,0337,0304,0336,0333,0337,0337,0320,0335,0335,",
    "0222:0320,0336,0336,0331,0333,0337,0200,0336,0330,0332,0336,0336,0330,0332,0332,0332,0332,0337,064,0155,0155,040,0172,0365,0331,0331,0333,0336,0326,0333,0337,0201,0336,0201,0335,0201,0201,0201,0335,0201,0201,0201,0335,0335,0306,0350,0335,0362,0203,0334,0334,0334,0334,0203,0334,0334,0334,0334,0203,0363,0334,0334,0334,0334,0334,0304,0331,0333,0333,0337,0337,0330,0335,0337,0337,0325,0336,0336,0334,0332,0330,0337,0337,0342,0330,0334,0336,0334,0306,0336,0350,0335,0362,0203,0334,0334,0334,0334,0203,0334,0334,0334,0334,0203,0363,0334,0334,0337,0304,0336,0333,0337,0337,0320,0335,",
    "0223:0320,0336,0336,0331,0333,0337,0200,0336,0330,0332,0336,0336,0330,0332,0332,0332,0332,0337,064,0155,0155,040,0172,0365,0331,0331,0333,0336,0326,0333,0337,0201,0336,0201,0335,0201,0201,0201,0335,0201,0201,0201,0335,0335,0306,0350,0335,0362,0203,0334,0334,0334,0334,0203,0334,0334,0334,0334,0203,0363,0334,0334,0334,0334,0334,0304,0331,0333,0333,0337,0337,0330,0335,0337,0337,0325,0336,0336,0334,0332,0330,0331,0331,0335,0335,0337,0337,0342,0330,0334,0336,0334,0306,0336,0350,0335,0362,0203,0334,0334,0334,0334,0203,0334,0334,0334,0334,0203,0363,0334,0334,0337,0304,0336,0333,0337,0337,0320,0335,0335,0335,",
    "0224:0220,0220,0220,0220,0222,0221,0221,0221,0221,0222,0220,0220,0220,0220,0222,0221,0221,0221,0221,0222,0220,0220,0220,0220,0223,0233,0233,0233,0231,0231,0231,0231,",
    "0225:0304,0330,0335,0335,0305,0350,0311,0362,0203,0335,0335,0335,0335,0336,0203,0335,0335,0203,0354,0335,0335,0335,0322,0335,0335,0330,0334,0334,0334,0336,0334,0342,0335,0342,0330,0335,0335,0335,0336,0335,0201,0334,0334,0334,0334,0201,0335,0335,0335,0335,0336,0201,0334,0334,0334,0334,0201,0335,0335,0335,0336,0335,0201,0334,0334,0334,0334,0342,0335,0331,0337,0331,0337,0331,0335,0335,0337,0335,0331,0335,0336,0201,0335,0335,0335,0335,0201,0334,0334,0334,0334,0336,0201,0335,0335,0335,0335,0201,0334,0334,0334,0334,0336,0201,0335,0335,0335,0335,0201,0335,0335,0335,0331,0337,0337,0337,0337,0337,0320,0304,0335,0335,0331,0305,0350,",
    "0226:0313,0333,0342,0336,0332,0342,0336,0333,0342,0332,0332,0342,0336,0332,0342,0333,0333,0342,0333,0333,0342,0333,0333,0342,0333,0337,0337,0337,",
    "0227:0313,0336,0333,0337,0316,0336,0342,0313,0336,0332,0342,0332,0342,0332,0342,0332,0342,0333,0333,0333,0333,0333,0342,0333,0342,0333,0342,0333,0342,0333,0337,0316,0337,0313,",
    "0230:0336,0336,0331,0331,0335,0336,0332,0337,0337,0337,0322,0342,0330,0335,0335,0306,0350,0335,0336,0336,0362,0203,0334,0334,0334,0334,0203,0334,0334,0334,0334,0203,0363,0334,0334,0337,0304,0337,0336,0333,0336,0330,0336,0330,0337,0337,0337,0320,",
    "0231:0336,0336,0330,0336,0330,0334,0337,0337,0337,0322,0342,0330,0335,0335,0306,0350,0334,0336,0336,0362,0203,0335,0335,0335,0335,0203,0335,0335,0335,0335,0203,0363,0335,0335,0304,0337,0337,0336,0331,0332,0336,0336,0330,0337,0337,0337,0320,",
    "0232:0336,0333,0336,0336,0332,0337,0337,0337,0325,0342,0330,0335,0335,0306,0350,0335,0336,0336,0362,0203,0334,0334,0334,0334,0203,0334,0334,0334,0334,0203,0363,0335,0337,0337,0304,0336,0330,0332,0336,0336,0333,0337,0337,0337,0320,",
    "0233:0336,0333,0335,0335,0337,0325,0342,0330,0335,0335,0306,0350,0335,0336,0336,0362,0203,0334,0334,0334,0334,0203,0334,0334,0334,0334,0203,0363,0334,0334,0334,0334,0334,0337,0304,0320,0336,0331,0331,0332,0332,0337,0337,",
    "0234:0336,0336,0336,0330,0362,0203,0203,0334,0203,0335,0203,0203,0335,0203,0334,0203,0203,0203,0334,0203,0203,0203,0203,0203,0203,0203,0334,0203,0203,0203,0335,0203,0334,0203,0203,0334,0203,0335,0203,0203,0334,0203,0203,0335,0203,0334,0203,0203,0334,0203,0335,0203,0203,0203,0354,0334,0331,0337,0337,0337,",
    "0235:0322,0232,0323,0232,0324,0232,0325,0232,0326,0232,0327,0232,",
    "0236:0313,0336,0316,0336,0332,0336,0347,0337,0333,0333,0336,0347,0337,0332,0337,0313,0337,",
    "0237:0200,0336,0330,0332,0336,0330,0325,0235,0331,0331,0335,0335,0235,0331,0322,0335,0330,0235,0331,0335,0335,0330,0235,0334,0326,0330,0235,0331,0331,0335,0335,0235,0333,0333,0325,0336,0341,0335,0335,0330,0330,0330,0330,0322,0341,0320,0337,0350,0335,0304,0236,0350,0335,0304,0330,0236,0330,0350,0335,0304,0236,0350,0335,0304,0330,0236,0330,0350,0335,0304,0236,0350,0335,0304,0330,0236,0330,0350,0335,0304,0236,0350,0335,0330,0304,0236,0333,0331,0333,0336,0331,0333,0337,0314,0337,0200,0336,0313,0336,0331,0333,0337,0337,0337,0336,0336,0330,0332,0327,0336,0330,0332,0336,0336,0332,0332,0332,0332,0331,0331,0331,0332,0332,0332,0333,0333,070,040,0147,0162,0145,0145,0156,0365,0332,0332,0332,0332,0332,0332,0332,0332,061,061,040,0147,0162,0145,0171,0365,061,060,040,0160,0165,0162,0160,0154,0145,0330,0330,0330,0330,0330,0330,0332,0332,0365,061,062,040,0167,0150,0151,0164,0145,0330,0330,0330,0330,0330,0330,0330,0365,071,040,0142,0154,0165,0145,0333,0333,0333,0333,0333,0333,0333,0333,0333,0365,065,040,0162,0145,0144,0333,0333,0333,0333,0333,0333,0333,0333,0333,0365,067,040,0171,0145,0154,0154,0157,0167,0331,0331,0331,0331,0331,0332,0365,066,040,0157,0162,0141,0156,0147,0145,0331,0331,0331,0331,0331,0331,0331,0331,0365,0331,0331,0331,0331,0331,0331,0333,0333,0333,0333,0333,0331,0331,0333,0333,0331,0333,0333,0333,0337,0337,0337,0337,0337,0320,0336,0332,0336,0336,0336,0332,0201,0201,0201,0335,0201,0201,0335,0201,0201,0201,0335,0335,0333,0333,0333,0333,0333,0333,0333,0337,0337,0337,0337,",
    "01220:0333,0200,0336,0330,0332,0331,0332,0336,0330,0330,0333,0337,0220,0336,0331,0331,0336,0337,0337,0337,",
    "01221:0333,0200,0336,0330,0336,0332,0337,0221,0331,0333,0333,0336,0337,0337,",
    "01222:0333,0200,0336,0330,0332,0336,0331,0337,0222,0333,0331,0331,0337,",
    "01223:0333,0200,0336,0330,0332,0336,0330,0337,0223,0333,0337,",
    "01224:0333,0200,0336,0330,0332,0336,0331,0332,0336,0331,0332,0224,0337,0333,0333,0333,0336,0333,0331,0337,0337,0337,",
    "01225:0333,0225,0313,0304,",
    "01226:0226,0200,",
    "01227:0227,0200,",
    "01230:0333,0200,0336,0332,0330,0336,0332,0330,0337,0230,0331,0336,0331,0332,0333,0337,0337,",
    "01231:0333,0200,0336,0330,0332,0336,0333,0337,0231,0333,0331,0333,0337,",
    "01232:0333,0200,0336,0330,0332,0336,0331,0332,0337,0232,0331,0333,0336,0331,0333,0331,0337,0337,",
    "01233:0333,0200,0336,0330,0332,0336,0330,0332,0337,0233,0333,0336,0333,0337,0337,",
    "01234:0333,0234,",
    "01235:0333,0200,0336,0330,0332,0235,0331,0333,0337,",
    "01236:0333,0200,0336,0330,0332,0236,0331,0333,0337,",
    "01237:0333,0200,0336,0330,0332,0336,0333,0337,0221,0333,0331,0333,0337,",
    "0240:0220,0336,0331,0333,0336,0321,0335,0342,0335,0335,0342,0335,0330,0330,0332,0332,0337,0337,",
    "01240:0333,0200,0336,0330,0332,0210,0240,0211,0333,0331,0337,",
    "0241:0220,0336,0321,0343,0332,0350,0335,0336,0342,0334,0334,0342,0335,0304,0337,0333,0337,",
    "01241:0333,0200,0336,0332,0330,0210,0241,0211,0333,0331,0337,",
    "0242:0220,0321,0336,0343,0333,0336,0350,0335,0342,0334,0334,0342,0335,0337,0304,0332,0337,",
    "01242:0333,0200,0336,0330,0332,0210,0242,0211,0333,0331,0337,",
    "0243:0220,0336,0331,0332,0336,0321,0343,0332,0350,0334,0336,0342,0335,0335,0342,0337,0334,0334,0335,0304,0332,0330,0330,0337,0337,0333,",
    "01243:0333,0200,0336,0330,0332,0210,0243,0211,0333,0331,0337,",
    "0244:0220,0336,0331,0333,0336,0321,0343,0333,0350,0336,0335,0342,0334,0334,0342,0335,0337,0304,0333,0330,0330,0337,0337,0332,",
    "01244:0333,0200,0336,0330,0332,0210,0244,0211,0333,0331,0337,",
    "0245:0210,0332,0332,0362,0335,0203,0203,0203,0203,0334,0203,0363,0332,0332,0331,0211,",
    "01245:0333,0200,0336,0330,0332,0336,0245,0337,0333,0331,0337,",
    "0246:0210,0332,0332,0335,0306,0336,0330,0335,0335,0335,0321,0362,0203,0335,0335,0203,0364,0331,0350,0335,0337,0366,0333,0333,0333,0333,0334,0334,0334,0334,0367,0335,0336,0342,0334,0334,0342,0330,0330,0330,0330,0335,0335,0335,0304,0337,0211,",
    "01246:0333,0200,0336,0330,0332,0336,0246,",
    "0247:0330,0332,0336,0332,0336,0221,0333,0333,0333,0222,0333,0333,0333,0223,0333,0333,0333,0225,0333,0331,0331,0331,0332,0332,0332,0332,0332,0332,0332,0332,0332,0332,0332,0332,0333,0333,0226,0331,0331,0331,0333,0333,0333,0333,0333,0333,0333,0333,0333,0333,0333,0333,0333,0330,0333,0330,0330,0333,0330,0331,0332,0332,0332,0332,0332,0332,0332,0332,0332,0332,0332,0332,0227,0333,0333,0333,0230,0333,0331,0331,0331,0331,0332,0332,0332,0330,0332,0332,0332,0332,0332,0332,0333,0333,0231,0333,0333,0333,0232,0331,0333,0330,0333,0333,0233,0333,0333,0333,0234,0330,0330,0332,0330,0332,0332,0337,0337,",
    "01247:0333,0200,0336,0330,0332,0220,0336,0247,0337,0331,0333,0337,"
  ]
}</json>-->	<path d = "M89 90 L89 38 L36 38 L36 90 L89 90 Z" stroke = "#000000" stroke-width = "3" fill = "none" /><circle cx="62" cy = "64" r = "3" stroke = "#000000" stroke-width = "3" fill = "#000000" />
<circle cx="62" cy = "57" r = "3" stroke = "#000000" stroke-width = "3" fill = "#000000" />
<circle cx="62" cy = "51" r = "3" stroke = "#000000" stroke-width = "3" fill = "#000000" />
<circle cx="62" cy = "71" r = "3" stroke = "#000000" stroke-width = "3" fill = "#000000" />
<circle cx="62" cy = "77" r = "3" stroke = "#000000" stroke-width = "3" fill = "#000000" />
<circle cx="69" cy = "77" r = "3" stroke = "#000000" stroke-width = "3" fill = "#000000" />
<circle cx="69" cy = "71" r = "3" stroke = "#000000" stroke-width = "3" fill = "#000000" />
<circle cx="69" cy = "64" r = "3" stroke = "#000000" stroke-width = "3" fill = "#000000" />
<circle cx="69" cy = "57" r = "3" stroke = "#000000" stroke-width = "3" fill = "#000000" />
<circle cx="69" cy = "51" r = "3" stroke = "#000000" stroke-width = "3" fill = "#000000" />
<circle cx="76" cy = "51" r = "3" stroke = "#000000" stroke-width = "3" fill = "#000000" />
<circle cx="76" cy = "57" r = "3" stroke = "#000000" stroke-width = "3" fill = "#000000" />
<circle cx="76" cy = "64" r = "3" stroke = "#000000" stroke-width = "3" fill = "#000000" />
<circle cx="76" cy = "71" r = "3" stroke = "#000000" stroke-width = "3" fill = "#000000" />
<circle cx="76" cy = "77" r = "3" stroke = "#000000" stroke-width = "3" fill = "#000000" />
<circle cx="56" cy = "77" r = "3" stroke = "#000000" stroke-width = "3" fill = "#000000" />
<circle cx="56" cy = "71" r = "3" stroke = "#000000" stroke-width = "3" fill = "#000000" />
<circle cx="56" cy = "64" r = "3" stroke = "#000000" stroke-width = "3" fill = "#000000" />
<circle cx="56" cy = "57" r = "3" stroke = "#000000" stroke-width = "3" fill = "#000000" />
<circle cx="56" cy = "51" r = "3" stroke = "#000000" stroke-width = "3" fill = "#000000" />
<circle cx="49" cy = "51" r = "3" stroke = "#000000" stroke-width = "3" fill = "#000000" />
<circle cx="49" cy = "57" r = "3" stroke = "#000000" stroke-width = "3" fill = "#000000" />
<circle cx="49" cy = "64" r = "3" stroke = "#000000" stroke-width = "3" fill = "#000000" />
<circle cx="49" cy = "71" r = "3" stroke = "#000000" stroke-width = "3" fill = "#000000" />
<circle cx="49" cy = "77" r = "3" stroke = "#000000" stroke-width = "3" fill = "#000000" />
<circle cx="102" cy = "77" r = "6.61281209058" stroke = "#000000" stroke-width = "3" fill = "none" />
<circle cx="102" cy = "51" r = "6.61281209058" stroke = "#000000" stroke-width = "3" fill = "none" />
	<path d = "M168 90 L168 38 L115 38 L115 90 L168 90 Z" stroke = "#000000" stroke-width = "3" fill = "none" />    <line x1="122" y1="64" x2="122" y2="51" style="stroke:#000000;stroke-width:3" />
    <line x1="122" y1="51" x2="135" y2="51" style="stroke:#000000;stroke-width:3" />
    <line x1="135" y1="51" x2="135" y2="64" style="stroke:#000000;stroke-width:3" />
    <line x1="135" y1="64" x2="162" y2="64" style="stroke:#ff0000;stroke-width:3" />
    <line x1="162" y1="64" x2="152" y2="55" style="stroke:#ff0000;stroke-width:3" />
    <line x1="162" y1="64" x2="152" y2="73" style="stroke:#ff0000;stroke-width:3" />
	<path d = "M221 90 L221 38 L168 38 L168 90 L221 90 Z" stroke = "#000000" stroke-width = "3" fill = "none" />    <line x1="175" y1="64" x2="175" y2="51" style="stroke:#000000;stroke-width:3" />
    <line x1="175" y1="51" x2="188" y2="51" style="stroke:#000000;stroke-width:3" />
    <line x1="188" y1="51" x2="188" y2="64" style="stroke:#000000;stroke-width:3" />
    <line x1="188" y1="64" x2="214" y2="64" style="stroke:#ff0000;stroke-width:3" />
    <line x1="214" y1="64" x2="205" y2="55" style="stroke:#ff0000;stroke-width:3" />
    <line x1="214" y1="64" x2="205" y2="73" style="stroke:#ff0000;stroke-width:3" />
	<path d = "M274 90 L274 38 L221 38 L221 90 L274 90 Z" stroke = "#000000" stroke-width = "3" fill = "none" />    <line x1="228" y1="64" x2="228" y2="51" style="stroke:#000000;stroke-width:3" />
    <line x1="228" y1="51" x2="241" y2="51" style="stroke:#000000;stroke-width:3" />
    <line x1="241" y1="51" x2="241" y2="64" style="stroke:#000000;stroke-width:3" />
    <line x1="241" y1="64" x2="267" y2="64" style="stroke:#ff0000;stroke-width:3" />
    <line x1="267" y1="64" x2="258" y2="55" style="stroke:#ff0000;stroke-width:3" />
    <line x1="267" y1="64" x2="258" y2="73" style="stroke:#ff0000;stroke-width:3" />
	<path d = "M327 90 L327 38 L274 38 L274 90 L327 90 Z" stroke = "#000000" stroke-width = "3" fill = "none" />    <line x1="281" y1="64" x2="281" y2="51" style="stroke:#000000;stroke-width:3" />
    <line x1="281" y1="51" x2="294" y2="51" style="stroke:#000000;stroke-width:3" />
    <line x1="294" y1="51" x2="294" y2="64" style="stroke:#000000;stroke-width:3" />
    <line x1="294" y1="64" x2="320" y2="64" style="stroke:#ff0000;stroke-width:3" />
    <line x1="320" y1="64" x2="311" y2="55" style="stroke:#ff0000;stroke-width:3" />
    <line x1="320" y1="64" x2="311" y2="73" style="stroke:#ff0000;stroke-width:3" />
	<path d = "M380 90 L380 38 L327 38 L327 90 L380 90 Z" stroke = "#000000" stroke-width = "3" fill = "none" />    <line x1="367" y1="77" x2="367" y2="64" style="stroke:#000000;stroke-width:3" />
    <line x1="367" y1="64" x2="353" y2="64" style="stroke:#000000;stroke-width:3" />
    <line x1="353" y1="64" x2="353" y2="77" style="stroke:#000000;stroke-width:3" />
    <line x1="353" y1="77" x2="347" y2="77" style="stroke:#000000;stroke-width:3" />
    <line x1="347" y1="77" x2="347" y2="51" style="stroke:#008000;stroke-width:3" />
    <line x1="347" y1="51" x2="337" y2="60" style="stroke:#008000;stroke-width:3" />
    <line x1="347" y1="51" x2="356" y2="60" style="stroke:#008000;stroke-width:3" />
	<path d = "M433 90 L433 38 L380 38 L380 90 L433 90 Z" stroke = "#000000" stroke-width = "3" fill = "none" />    <line x1="426" y1="64" x2="426" y2="51" style="stroke:#000000;stroke-width:3" />
    <line x1="426" y1="51" x2="413" y2="51" style="stroke:#000000;stroke-width:3" />
    <line x1="413" y1="51" x2="413" y2="64" style="stroke:#000000;stroke-width:3" />
    <line x1="413" y1="64" x2="386" y2="64" style="stroke:#ff0000;stroke-width:3" />
    <line x1="386" y1="64" x2="396" y2="55" style="stroke:#ff0000;stroke-width:3" />
    <line x1="386" y1="64" x2="396" y2="73" style="stroke:#ff0000;stroke-width:3" />
	<path d = "M486 90 L486 38 L433 38 L433 90 L486 90 Z" stroke = "#000000" stroke-width = "3" fill = "none" />    <line x1="479" y1="64" x2="479" y2="51" style="stroke:#000000;stroke-width:3" />
    <line x1="479" y1="51" x2="466" y2="51" style="stroke:#000000;stroke-width:3" />
    <line x1="466" y1="51" x2="466" y2="64" style="stroke:#000000;stroke-width:3" />
    <line x1="466" y1="64" x2="439" y2="64" style="stroke:#ff0000;stroke-width:3" />
    <line x1="439" y1="64" x2="449" y2="55" style="stroke:#ff0000;stroke-width:3" />
    <line x1="439" y1="64" x2="449" y2="73" style="stroke:#ff0000;stroke-width:3" />
	<path d = "M538 90 L538 38 L486 38 L486 90 L538 90 Z" stroke = "#000000" stroke-width = "3" fill = "none" />    <line x1="532" y1="64" x2="532" y2="51" style="stroke:#000000;stroke-width:3" />
    <line x1="532" y1="51" x2="519" y2="51" style="stroke:#000000;stroke-width:3" />
    <line x1="519" y1="51" x2="519" y2="64" style="stroke:#000000;stroke-width:3" />
    <line x1="519" y1="64" x2="492" y2="64" style="stroke:#ff0000;stroke-width:3" />
    <line x1="492" y1="64" x2="502" y2="55" style="stroke:#ff0000;stroke-width:3" />
    <line x1="492" y1="64" x2="502" y2="73" style="stroke:#ff0000;stroke-width:3" />
	<path d = "M591 90 L591 38 L538 38 L538 90 L591 90 Z" stroke = "#000000" stroke-width = "3" fill = "none" />    <line x1="585" y1="64" x2="585" y2="51" style="stroke:#000000;stroke-width:3" />
    <line x1="585" y1="51" x2="572" y2="51" style="stroke:#000000;stroke-width:3" />
    <line x1="572" y1="51" x2="572" y2="64" style="stroke:#000000;stroke-width:3" />
    <line x1="572" y1="64" x2="545" y2="64" style="stroke:#ff0000;stroke-width:3" />
    <line x1="545" y1="64" x2="554" y2="55" style="stroke:#ff0000;stroke-width:3" />
    <line x1="545" y1="64" x2="554" y2="73" style="stroke:#ff0000;stroke-width:3" />
	<path d = "M644 90 L644 38 L591 38 L591 90 L644 90 Z" stroke = "#000000" stroke-width = "3" fill = "none" />    <line x1="631" y1="77" x2="631" y2="64" style="stroke:#000000;stroke-width:3" />
    <line x1="631" y1="64" x2="618" y2="64" style="stroke:#000000;stroke-width:3" />
    <line x1="618" y1="64" x2="618" y2="77" style="stroke:#000000;stroke-width:3" />
    <line x1="618" y1="77" x2="611" y2="77" style="stroke:#000000;stroke-width:3" />
    <line x1="611" y1="77" x2="611" y2="51" style="stroke:#008000;stroke-width:3" />
    <line x1="611" y1="51" x2="602" y2="60" style="stroke:#008000;stroke-width:3" />
    <line x1="611" y1="51" x2="621" y2="60" style="stroke:#008000;stroke-width:3" />
	<path d = "M697 90 L697 38 L644 38 L644 90 L697 90 Z" stroke = "#000000" stroke-width = "3" fill = "none" />    <line x1="651" y1="64" x2="651" y2="51" style="stroke:#000000;stroke-width:3" />
    <line x1="651" y1="51" x2="664" y2="51" style="stroke:#000000;stroke-width:3" />
    <line x1="664" y1="51" x2="664" y2="64" style="stroke:#000000;stroke-width:3" />
    <line x1="664" y1="64" x2="691" y2="64" style="stroke:#ff0000;stroke-width:3" />
    <line x1="691" y1="64" x2="681" y2="55" style="stroke:#ff0000;stroke-width:3" />
    <line x1="691" y1="64" x2="681" y2="73" style="stroke:#ff0000;stroke-width:3" />
	<path d = "M62 170 L62 117 L9 117 L9 170 L62 170 Z" stroke = "#000000" stroke-width = "3" fill = "none" />    <line x1="16" y1="143" x2="16" y2="130" style="stroke:#000000;stroke-width:3" />
    <line x1="16" y1="130" x2="29" y2="130" style="stroke:#000000;stroke-width:3" />
    <line x1="29" y1="130" x2="29" y2="143" style="stroke:#000000;stroke-width:3" />
    <line x1="29" y1="143" x2="56" y2="143" style="stroke:#ff0000;stroke-width:3" />
    <line x1="56" y1="143" x2="46" y2="134" style="stroke:#ff0000;stroke-width:3" />
    <line x1="56" y1="143" x2="46" y2="153" style="stroke:#ff0000;stroke-width:3" />
	<path d = "M115 170 L115 117 L62 117 L62 170 L115 170 Z" stroke = "#000000" stroke-width = "3" fill = "none" />    <line x1="69" y1="143" x2="69" y2="130" style="stroke:#000000;stroke-width:3" />
    <line x1="69" y1="130" x2="82" y2="130" style="stroke:#000000;stroke-width:3" />
    <line x1="82" y1="130" x2="82" y2="143" style="stroke:#000000;stroke-width:3" />
    <line x1="82" y1="143" x2="109" y2="143" style="stroke:#ff0000;stroke-width:3" />
    <line x1="109" y1="143" x2="99" y2="134" style="stroke:#ff0000;stroke-width:3" />
    <line x1="109" y1="143" x2="99" y2="153" style="stroke:#ff0000;stroke-width:3" />
	<path d = "M168 170 L168 117 L115 117 L115 170 L168 170 Z" stroke = "#000000" stroke-width = "3" fill = "none" />    <line x1="122" y1="143" x2="122" y2="130" style="stroke:#000000;stroke-width:3" />
    <line x1="122" y1="130" x2="135" y2="130" style="stroke:#000000;stroke-width:3" />
    <line x1="135" y1="130" x2="135" y2="143" style="stroke:#000000;stroke-width:3" />
    <line x1="135" y1="143" x2="162" y2="143" style="stroke:#ff0000;stroke-width:3" />
    <line x1="162" y1="143" x2="152" y2="134" style="stroke:#ff0000;stroke-width:3" />
    <line x1="162" y1="143" x2="152" y2="153" style="stroke:#ff0000;stroke-width:3" />
	<path d = "M221 170 L221 117 L168 117 L168 170 L221 170 Z" stroke = "#000000" stroke-width = "3" fill = "none" />    <line x1="208" y1="157" x2="208" y2="143" style="stroke:#000000;stroke-width:3" />
    <line x1="208" y1="143" x2="195" y2="143" style="stroke:#000000;stroke-width:3" />
    <line x1="195" y1="143" x2="195" y2="157" style="stroke:#000000;stroke-width:3" />
    <line x1="195" y1="157" x2="188" y2="157" style="stroke:#000000;stroke-width:3" />
    <line x1="188" y1="157" x2="188" y2="130" style="stroke:#008000;stroke-width:3" />
    <line x1="188" y1="130" x2="179" y2="140" style="stroke:#008000;stroke-width:3" />
    <line x1="188" y1="130" x2="197" y2="140" style="stroke:#008000;stroke-width:3" />
	<path d = "M274 170 L274 117 L221 117 L221 170 L274 170 Z" stroke = "#000000" stroke-width = "3" fill = "none" />    <line x1="267" y1="143" x2="267" y2="130" style="stroke:#000000;stroke-width:3" />
    <line x1="267" y1="130" x2="254" y2="130" style="stroke:#000000;stroke-width:3" />
    <line x1="254" y1="130" x2="254" y2="143" style="stroke:#000000;stroke-width:3" />
    <line x1="254" y1="143" x2="228" y2="143" style="stroke:#ff0000;stroke-width:3" />
    <line x1="228" y1="143" x2="237" y2="134" style="stroke:#ff0000;stroke-width:3" />
    <line x1="228" y1="143" x2="237" y2="153" style="stroke:#ff0000;stroke-width:3" />
	<path d = "M327 170 L327 117 L274 117 L274 170 L327 170 Z" stroke = "#000000" stroke-width = "3" fill = "none" />    <line x1="320" y1="143" x2="320" y2="130" style="stroke:#000000;stroke-width:3" />
    <line x1="320" y1="130" x2="307" y2="130" style="stroke:#000000;stroke-width:3" />
    <line x1="307" y1="130" x2="307" y2="143" style="stroke:#000000;stroke-width:3" />
    <line x1="307" y1="143" x2="281" y2="143" style="stroke:#ff0000;stroke-width:3" />
    <line x1="281" y1="143" x2="290" y2="134" style="stroke:#ff0000;stroke-width:3" />
    <line x1="281" y1="143" x2="290" y2="153" style="stroke:#ff0000;stroke-width:3" />
	<path d = "M380 170 L380 117 L327 117 L327 170 L380 170 Z" stroke = "#000000" stroke-width = "3" fill = "none" />    <line x1="373" y1="143" x2="373" y2="130" style="stroke:#000000;stroke-width:3" />
    <line x1="373" y1="130" x2="360" y2="130" style="stroke:#000000;stroke-width:3" />
    <line x1="360" y1="130" x2="360" y2="143" style="stroke:#000000;stroke-width:3" />
    <line x1="360" y1="143" x2="333" y2="143" style="stroke:#ff0000;stroke-width:3" />
    <line x1="333" y1="143" x2="343" y2="134" style="stroke:#ff0000;stroke-width:3" />
    <line x1="333" y1="143" x2="343" y2="153" style="stroke:#ff0000;stroke-width:3" />
	<path d = "M433 170 L433 117 L380 117 L380 170 L433 170 Z" stroke = "#000000" stroke-width = "3" fill = "none" />    <line x1="426" y1="143" x2="426" y2="130" style="stroke:#000000;stroke-width:3" />
    <line x1="426" y1="130" x2="413" y2="130" style="stroke:#000000;stroke-width:3" />
    <line x1="413" y1="130" x2="413" y2="143" style="stroke:#000000;stroke-width:3" />
    <line x1="413" y1="143" x2="386" y2="143" style="stroke:#ff0000;stroke-width:3" />
    <line x1="386" y1="143" x2="396" y2="134" style="stroke:#ff0000;stroke-width:3" />
    <line x1="386" y1="143" x2="396" y2="153" style="stroke:#ff0000;stroke-width:3" />
	<path d = "M486 170 L486 117 L433 117 L433 170 L486 170 Z" stroke = "#000000" stroke-width = "3" fill = "none" />    <line x1="472" y1="157" x2="472" y2="143" style="stroke:#000000;stroke-width:3" />
    <line x1="472" y1="143" x2="459" y2="143" style="stroke:#000000;stroke-width:3" />
    <line x1="459" y1="143" x2="459" y2="157" style="stroke:#000000;stroke-width:3" />
    <line x1="459" y1="157" x2="453" y2="157" style="stroke:#000000;stroke-width:3" />
    <line x1="453" y1="157" x2="453" y2="130" style="stroke:#008000;stroke-width:3" />
    <line x1="453" y1="130" x2="443" y2="140" style="stroke:#008000;stroke-width:3" />
    <line x1="453" y1="130" x2="462" y2="140" style="stroke:#008000;stroke-width:3" />
	<path d = "M538 170 L538 117 L486 117 L486 170 L538 170 Z" stroke = "#000000" stroke-width = "3" fill = "none" />    <line x1="492" y1="143" x2="492" y2="130" style="stroke:#000000;stroke-width:3" />
    <line x1="492" y1="130" x2="505" y2="130" style="stroke:#000000;stroke-width:3" />
    <line x1="505" y1="130" x2="505" y2="143" style="stroke:#000000;stroke-width:3" />
    <line x1="505" y1="143" x2="532" y2="143" style="stroke:#ff0000;stroke-width:3" />
    <line x1="532" y1="143" x2="523" y2="134" style="stroke:#ff0000;stroke-width:3" />
    <line x1="532" y1="143" x2="523" y2="153" style="stroke:#ff0000;stroke-width:3" />
	<path d = "M591 170 L591 117 L538 117 L538 170 L591 170 Z" stroke = "#000000" stroke-width = "3" fill = "none" />    <line x1="545" y1="143" x2="545" y2="130" style="stroke:#000000;stroke-width:3" />
    <line x1="545" y1="130" x2="558" y2="130" style="stroke:#000000;stroke-width:3" />
    <line x1="558" y1="130" x2="558" y2="143" style="stroke:#000000;stroke-width:3" />
    <line x1="558" y1="143" x2="585" y2="143" style="stroke:#ff0000;stroke-width:3" />
    <line x1="585" y1="143" x2="575" y2="134" style="stroke:#ff0000;stroke-width:3" />
    <line x1="585" y1="143" x2="575" y2="153" style="stroke:#ff0000;stroke-width:3" />
	<path d = "M644 170 L644 117 L591 117 L591 170 L644 170 Z" stroke = "#000000" stroke-width = "3" fill = "none" />    <line x1="598" y1="143" x2="598" y2="130" style="stroke:#000000;stroke-width:3" />
    <line x1="598" y1="130" x2="611" y2="130" style="stroke:#000000;stroke-width:3" />
    <line x1="611" y1="130" x2="611" y2="143" style="stroke:#000000;stroke-width:3" />
    <line x1="611" y1="143" x2="638" y2="143" style="stroke:#ff0000;stroke-width:3" />
    <line x1="638" y1="143" x2="628" y2="134" style="stroke:#ff0000;stroke-width:3" />
    <line x1="638" y1="143" x2="628" y2="153" style="stroke:#ff0000;stroke-width:3" />
	<path d = "M697 170 L697 117 L644 117 L644 170 L697 170 Z" stroke = "#000000" stroke-width = "3" fill = "none" />    <line x1="651" y1="143" x2="651" y2="130" style="stroke:#000000;stroke-width:3" />
    <line x1="651" y1="130" x2="664" y2="130" style="stroke:#000000;stroke-width:3" />
    <line x1="664" y1="130" x2="664" y2="143" style="stroke:#000000;stroke-width:3" />
    <line x1="664" y1="143" x2="691" y2="143" style="stroke:#ff0000;stroke-width:3" />
    <line x1="691" y1="143" x2="681" y2="134" style="stroke:#ff0000;stroke-width:3" />
    <line x1="691" y1="143" x2="681" y2="153" style="stroke:#ff0000;stroke-width:3" />
	<path d = "M62 249 L62 196 L9 196 L9 249 L62 249 Z" stroke = "#000000" stroke-width = "3" fill = "none" />    <line x1="49" y1="216" x2="49" y2="203" style="stroke:#000000;stroke-width:3" />
    <line x1="49" y1="203" x2="36" y2="203" style="stroke:#000000;stroke-width:3" />
    <line x1="36" y1="203" x2="36" y2="216" style="stroke:#000000;stroke-width:3" />
    <line x1="36" y1="216" x2="29" y2="216" style="stroke:#000000;stroke-width:3" />
    <line x1="29" y1="216" x2="29" y2="243" style="stroke:#008000;stroke-width:3" />
    <line x1="29" y1="243" x2="39" y2="233" style="stroke:#008000;stroke-width:3" />
    <line x1="29" y1="243" x2="20" y2="233" style="stroke:#008000;stroke-width:3" />
	<path d = "M115 249 L115 196 L62 196 L62 249 L115 249 Z" stroke = "#000000" stroke-width = "3" fill = "none" /><circle cx="89" cy = "223" r = "3" stroke = "#008000" stroke-width = "3" fill = "#008000" />
    <line x1="89" y1="223" x2="66" y2="236" style="stroke:#008000;stroke-width:3" />
	<path d = "M66 236 L73 236 L69 230 L66 236 Z" stroke = "#008000" stroke-width = "3" fill = "#008000" /> M89,223 C66,236 	<path d = "M168 249 L168 196 L115 196 L115 249 L168 249 Z" stroke = "#000000" stroke-width = "3" fill = "none" /><circle cx="142" cy = "223" r = "3" stroke = "#008000" stroke-width = "3" fill = "#008000" />
    <line x1="142" y1="223" x2="119" y2="236" style="stroke:#008000;stroke-width:3" />
	<path d = "M119 236 L125 236 L122 230 L119 236 Z" stroke = "#008000" stroke-width = "3" fill = "#008000" /> M142,223 C119,236 	<path d = "M221 249 L221 196 L168 196 L168 249 L221 249 Z" stroke = "#000000" stroke-width = "3" fill = "none" /><circle cx="195" cy = "223" r = "3" stroke = "#008000" stroke-width = "3" fill = "#008000" />
    <line x1="195" y1="223" x2="172" y2="236" style="stroke:#008000;stroke-width:3" />
	<path d = "M172 236 L178 236 L175 230 L172 236 Z" stroke = "#008000" stroke-width = "3" fill = "#008000" /> M195,223 C172,236 	<path d = "M274 249 L274 196 L221 196 L221 249 L274 249 Z" stroke = "#000000" stroke-width = "3" fill = "none" />    <line x1="248" y1="223" x2="221" y2="223" style="stroke:#ff0000;stroke-width:3" />
	<path d = "M221 223 L227 226 L227 219 L221 223 Z" stroke = "#ff0000" stroke-width = "3" fill = "#ff0000" /> M248,223 C221,223 	<path d = "M327 249 L327 196 L274 196 L274 249 L327 249 Z" stroke = "#000000" stroke-width = "3" fill = "none" />    <line x1="300" y1="223" x2="274" y2="223" style="stroke:#ff0000;stroke-width:3" />
	<path d = "M274 223 L280 226 L280 219 L274 223 Z" stroke = "#ff0000" stroke-width = "3" fill = "#ff0000" /> M300,223 C274,223 	<path d = "M380 249 L380 196 L327 196 L327 249 L380 249 Z" stroke = "#000000" stroke-width = "3" fill = "none" />    <line x1="353" y1="223" x2="327" y2="223" style="stroke:#ff0000;stroke-width:3" />
	<path d = "M327 223 L333 226 L333 219 L327 223 Z" stroke = "#ff0000" stroke-width = "3" fill = "#ff0000" /> M353,223 C327,223 	<path d = "M433 249 L433 196 L380 196 L380 249 L433 249 Z" stroke = "#000000" stroke-width = "3" fill = "none" />    <line x1="406" y1="223" x2="380" y2="223" style="stroke:#ff0000;stroke-width:3" />
	<path d = "M380 223 L385 226 L385 219 L380 223 Z" stroke = "#ff0000" stroke-width = "3" fill = "#ff0000" /> M406,223 C380,223 <circle cx="459" cy = "223" r = "13.22562418116" stroke = "#000000" stroke-width = "3" fill = "none" />
</svg>