<svg width="710" height="710" viewbox = "0 0 710 710"  xmlns="http://www.w3.org/2000/svg">
<!--<json>{
  "glyph": "0330,0330,0332,0332,0332,0332,01500,01500,01500,01500,01502,01501,01501,01501,0331,0332,0332,0332,0332,0332,0332,0332,0332,0336,0331,0337,01501,01502,01500,01500,01500,01500,01502,01501,0331,0332,0332,0332,0332,0332,0332,0332,0332,0336,0331,0337,01501,01501,01501,01500,01500,01500,01500,01503,0331,0332,0332,0332,0332,0332,0332,0332,0332,0336,0331,0337,01403,01403,01403,01401,01401,01401,01401,0335,0334,0336,0333,0330,0336,0341,0337,0331,0333,0337,",
  "x0": 355,
  "y0": 355,
  "unit": 85.2,
  "width": 710,
  "height": 710,
  "style": {
    "color0": "black",
    "fill0": "black",
    "line0": 3,
    "color1": "black",
    "fill1": "black",
    "line1": 5,
    "color2": "red",
    "fill2": "red",
    "line2": 3,
    "color3": "#FF7900",
    "fill3": "#FF7900",
    "line3": 3,
    "color4": "yellow",
    "fill4": "yellow",
    "line4": 3,
    "color5": "green",
    "fill5": "green",
    "line5": 3,
    "color6": "blue",
    "fill6": "blue",
    "line6": 3,
    "color7": "purple",
    "fill7": "purple",
    "line7": 3
  },
  "shapes": [
    "0220:0320,0336,0336,0331,0333,0337,0200,0336,0330,0332,0336,0336,0330,0332,0332,0332,0332,0337,064,0155,0155,040,0172,0365,0331,0331,0333,0336,0326,0333,0337,0201,0336,0201,0335,0201,0201,0201,0335,0201,0201,0201,0335,0335,0306,0350,0335,0362,0203,0334,0334,0334,0334,0203,0334,0334,0334,0334,0203,0363,0334,0334,0334,0334,0334,0304,0331,0333,0333,0337,0337,0330,0335,0337,0337,0322,0342,0330,0334,0336,0334,0306,0336,0350,0335,0362,0203,0334,0334,0334,0334,0203,0334,0334,0334,0334,0203,0363,0334,0334,0337,0304,0336,0333,0337,0337,0320,",
    "0221:0320,0336,0336,0331,0333,0337,0200,0336,0330,0332,0336,0336,0330,0332,0332,0332,0332,0337,064,0155,0155,040,0172,0365,0331,0331,0333,0336,0326,0333,0337,0201,0336,0201,0335,0201,0201,0201,0335,0201,0201,0201,0335,0335,0306,0350,0335,0362,0203,0334,0334,0334,0334,0203,0334,0334,0334,0334,0203,0363,0334,0334,0334,0334,0334,0304,0331,0333,0333,0337,0337,0330,0335,0337,0337,0322,0334,0334,0336,0330,0337,0342,0330,0334,0336,0334,0306,0336,0350,0335,0362,0203,0334,0334,0334,0334,0203,0334,0334,0334,0334,0203,0363,0334,0334,0337,0304,0336,0333,0337,0337,0320,0335,0335,",
    "0222:0320,0336,0336,0331,0333,0337,0200,0336,0330,0332,0336,0336,0330,0332,0332,0332,0332,0337,064,0155,0155,040,0172,0365,0331,0331,0333,0336,0326,0333,0337,0201,0336,0201,0335,0201,0201,0201,0335,0201,0201,0201,0335,0335,0306,0350,0335,0362,0203,0334,0334,0334,0334,0203,0334,0334,0334,0334,0203,0363,0334,0334,0334,0334,0334,0304,0331,0333,0333,0337,0337,0330,0335,0337,0337,0325,0336,0336,0334,0332,0330,0337,0337,0342,0330,0334,0336,0334,0306,0336,0350,0335,0362,0203,0334,0334,0334,0334,0203,0334,0334,0334,0334,0203,0363,0334,0334,0337,0304,0336,0333,0337,0337,0320,0335,",
    "0223:0320,0336,0336,0331,0333,0337,0200,0336,0330,0332,0336,0336,0330,0332,0332,0332,0332,0337,064,0155,0155,040,0172,0365,0331,0331,0333,0336,0326,0333,0337,0201,0336,0201,0335,0201,0201,0201,0335,0201,0201,0201,0335,0335,0306,0350,0335,0362,0203,0334,0334,0334,0334,0203,0334,0334,0334,0334,0203,0363,0334,0334,0334,0334,0334,0304,0331,0333,0333,0337,0337,0330,0335,0337,0337,0325,0336,0336,0334,0332,0330,0331,0331,0335,0335,0337,0337,0342,0330,0334,0336,0334,0306,0336,0350,0335,0362,0203,0334,0334,0334,0334,0203,0334,0334,0334,0334,0203,0363,0334,0334,0337,0304,0336,0333,0337,0337,0320,0335,0335,0335,",
    "0224:0220,0220,0220,0220,0222,0221,0221,0221,0221,0222,0220,0220,0220,0220,0222,0221,0221,0221,0221,0222,0220,0220,0220,0220,0223,0233,0233,0233,0231,0231,0231,0231,",
    "0225:0304,0330,0335,0335,0305,0350,0311,0362,0203,0335,0335,0335,0335,0336,0203,0335,0335,0203,0354,0335,0335,0335,0322,0335,0335,0330,0334,0334,0334,0336,0334,0342,0335,0342,0330,0335,0335,0335,0336,0335,0201,0334,0334,0334,0334,0201,0335,0335,0335,0335,0336,0201,0334,0334,0334,0334,0201,0335,0335,0335,0336,0335,0201,0334,0334,0334,0334,0342,0335,0331,0337,0331,0337,0331,0335,0335,0337,0335,0331,0335,0336,0201,0335,0335,0335,0335,0201,0334,0334,0334,0334,0336,0201,0335,0335,0335,0335,0201,0334,0334,0334,0334,0336,0201,0335,0335,0335,0335,0201,0335,0335,0335,0331,0337,0337,0337,0337,0337,0320,0304,0335,0335,0331,0305,0350,",
    "0226:0313,0333,0342,0336,0332,0342,0336,0333,0342,0332,0332,0342,0336,0332,0342,0333,0333,0342,0333,0333,0342,0333,0333,0342,0333,0337,0337,0337,",
    "0227:0313,0336,0333,0337,0316,0336,0342,0313,0336,0332,0342,0332,0342,0332,0342,0332,0342,0333,0333,0333,0333,0333,0342,0333,0342,0333,0342,0333,0342,0333,0337,0316,0337,0313,",
    "0230:0336,0336,0331,0331,0335,0336,0332,0337,0337,0337,0322,0342,0330,0335,0335,0306,0350,0335,0336,0336,0362,0203,0334,0334,0334,0334,0203,0334,0334,0334,0334,0203,0363,0334,0334,0337,0304,0337,0336,0333,0336,0330,0336,0330,0337,0337,0337,0320,",
    "0231:0336,0336,0330,0336,0330,0334,0337,0337,0337,0322,0342,0330,0335,0335,0306,0350,0334,0336,0336,0362,0203,0335,0335,0335,0335,0203,0335,0335,0335,0335,0203,0363,0335,0335,0304,0337,0337,0336,0331,0332,0336,0336,0330,0337,0337,0337,0320,",
    "0232:0336,0333,0336,0336,0332,0337,0337,0337,0325,0342,0330,0335,0335,0306,0350,0335,0336,0336,0362,0203,0334,0334,0334,0334,0203,0334,0334,0334,0334,0203,0363,0335,0337,0337,0304,0336,0330,0332,0336,0336,0333,0337,0337,0337,0320,",
    "0233:0336,0333,0335,0335,0337,0325,0342,0330,0335,0335,0306,0350,0335,0336,0336,0362,0203,0334,0334,0334,0334,0203,0334,0334,0334,0334,0203,0363,0334,0334,0334,0334,0334,0337,0304,0320,0336,0331,0331,0332,0332,0337,0337,",
    "0234:0336,0336,0336,0330,0362,0203,0203,0334,0203,0335,0203,0203,0335,0203,0334,0203,0203,0203,0334,0203,0203,0203,0203,0203,0203,0203,0334,0203,0203,0203,0335,0203,0334,0203,0203,0334,0203,0335,0203,0203,0334,0203,0203,0335,0203,0334,0203,0203,0334,0203,0335,0203,0203,0203,0354,0334,0331,0337,0337,0337,",
    "0235:0322,0232,0323,0232,0324,0232,0325,0232,0326,0232,0327,0232,",
    "0236:0313,0336,0316,0336,0332,0336,0347,0337,0333,0333,0336,0347,0337,0332,0337,0313,0337,",
    "0237:0200,0336,0330,0332,0336,0330,0325,0235,0331,0331,0335,0335,0235,0331,0322,0335,0330,0235,0331,0335,0335,0330,0235,0334,0326,0330,0235,0331,0331,0335,0335,0235,0333,0333,0325,0336,0341,0335,0335,0330,0330,0330,0330,0322,0341,0320,0337,0350,0335,0304,0236,0350,0335,0304,0330,0236,0330,0350,0335,0304,0236,0350,0335,0304,0330,0236,0330,0350,0335,0304,0236,0350,0335,0304,0330,0236,0330,0350,0335,0304,0236,0350,0335,0330,0304,0236,0333,0331,0333,0336,0331,0333,0337,0314,0337,0200,0336,0313,0336,0331,0333,0337,0337,0337,0336,0336,0330,0332,0327,0336,0330,0332,0336,0336,0332,0332,0332,0332,0331,0331,0331,0332,0332,0332,0333,0333,070,040,0147,0162,0145,0145,0156,0365,0332,0332,0332,0332,0332,0332,0332,0332,061,061,040,0147,0162,0145,0171,0365,061,060,040,0160,0165,0162,0160,0154,0145,0330,0330,0330,0330,0330,0330,0332,0332,0365,061,062,040,0167,0150,0151,0164,0145,0330,0330,0330,0330,0330,0330,0330,0365,071,040,0142,0154,0165,0145,0333,0333,0333,0333,0333,0333,0333,0333,0333,0365,065,040,0162,0145,0144,0333,0333,0333,0333,0333,0333,0333,0333,0333,0365,067,040,0171,0145,0154,0154,0157,0167,0331,0331,0331,0331,0331,0332,0365,066,040,0157,0162,0141,0156,0147,0145,0331,0331,0331,0331,0331,0331,0331,0331,0365,0331,0331,0331,0331,0331,0331,0333,0333,0333,0333,0333,0331,0331,0333,0333,0331,0333,0333,0333,0337,0337,0337,0337,0337,0320,0336,0332,0336,0336,0336,0332,0201,0201,0201,0335,0201,0201,0335,0201,0201,0201,0335,0335,0333,0333,0333,0333,0333,0333,0333,0337,0337,0337,0337,",
    "01220:0333,0200,0336,0330,0332,0331,0332,0336,0330,0330,0333,0337,0220,0336,0331,0331,0336,0337,0337,0337,",
    "01221:0333,0200,0336,0330,0336,0332,0337,0221,0331,0333,0333,0336,0337,0337,",
    "01222:0333,0200,0336,0330,0332,0336,0331,0337,0222,0333,0331,0331,0337,",
    "01223:0333,0200,0336,0330,0332,0336,0330,0337,0223,0333,0337,",
    "01224:0333,0200,0336,0330,0332,0336,0331,0332,0336,0331,0332,0224,0337,0333,0333,0333,0336,0333,0331,0337,0337,0337,",
    "01225:0333,0225,0313,0304,",
    "01226:0226,0200,",
    "01227:0227,0200,",
    "01230:0333,0200,0336,0332,0330,0336,0332,0330,0337,0230,0331,0336,0331,0332,0333,0337,0337,",
    "01231:0333,0200,0336,0330,0332,0336,0333,0337,0231,0333,0331,0333,0337,",
    "01232:0333,0200,0336,0330,0332,0336,0331,0332,0337,0232,0331,0333,0336,0331,0333,0331,0337,0337,",
    "01233:0333,0200,0336,0330,0332,0336,0330,0332,0337,0233,0333,0336,0333,0337,0337,",
    "01234:0333,0234,",
    "01235:0333,0200,0336,0330,0332,0235,0331,0333,0337,",
    "01236:0333,0200,0336,0330,0332,0236,0331,0333,0337,",
    "01237:0333,0200,0336,0330,0332,0336,0333,0337,0221,0333,0331,0333,0337,",
    "0240:0220,0336,0331,0333,0336,0321,0335,0342,0335,0335,0342,0335,0330,0330,0332,0332,0337,0337,",
    "01240:0333,0200,0336,0330,0332,0210,0240,0211,0333,0331,0337,",
    "0241:0220,0336,0321,0343,0332,0350,0335,0336,0342,0334,0334,0342,0335,0304,0337,0333,0337,",
    "01241:0333,0200,0336,0332,0330,0210,0241,0211,0333,0331,0337,",
    "0242:0220,0321,0336,0343,0333,0336,0350,0335,0342,0334,0334,0342,0335,0337,0304,0332,0337,",
    "01242:0333,0200,0336,0330,0332,0210,0242,0211,0333,0331,0337,",
    "0243:0220,0336,0331,0332,0336,0321,0343,0332,0350,0334,0336,0342,0335,0335,0342,0337,0334,0334,0335,0304,0332,0330,0330,0337,0337,0333,",
    "01243:0333,0200,0336,0330,0332,0210,0243,0211,0333,0331,0337,",
    "0244:0220,0336,0331,0333,0336,0321,0343,0333,0350,0336,0335,0342,0334,0334,0342,0335,0337,0304,0333,0330,0330,0337,0337,0332,",
    "01244:0333,0200,0336,0330,0332,0210,0244,0211,0333,0331,0337,",
    "0245:0210,0332,0332,0362,0335,0203,0203,0203,0203,0334,0203,0363,0332,0332,0331,0211,",
    "01245:0333,0200,0336,0330,0332,0336,0245,0337,0333,0331,0337,",
    "0246:0210,0332,0332,0335,0306,0336,0330,0335,0335,0335,0321,0362,0203,0335,0335,0203,0364,0331,0350,0335,0337,0366,0333,0333,0333,0333,0334,0334,0334,0334,0367,0335,0336,0342,0334,0334,0342,0330,0330,0330,0330,0335,0335,0335,0304,0337,0211,",
    "01246:0333,0200,0336,0330,0332,0336,0246,",
    "0247:0330,0332,0336,0332,0336,0221,0333,0333,0333,0222,0333,0333,0333,0223,0333,0333,0333,0225,0333,0331,0331,0331,0332,0332,0332,0332,0332,0332,0332,0332,0332,0332,0332,0332,0333,0333,0226,0331,0331,0331,0333,0333,0333,0333,0333,0333,0333,0333,0333,0333,0333,0333,0333,0330,0333,0330,0330,0333,0330,0331,0332,0332,0332,0332,0332,0332,0332,0332,0332,0332,0332,0332,0227,0333,0333,0333,0230,0333,0331,0331,0331,0331,0332,0332,0332,0330,0332,0332,0332,0332,0332,0332,0333,0333,0231,0333,0333,0333,0232,0331,0333,0330,0333,0333,0233,0333,0333,0333,0234,0330,0330,0332,0330,0332,0332,0337,0337,",
    "01247:0333,0200,0336,0330,0332,0220,0336,0247,0337,0331,0333,0337,"
  ]
}</json>-->	<path d = "M99 185 L99 99 L14 99 L14 185 L99 185 Z" stroke = "#000000" stroke-width = "3" fill = "none" />    <line x1="25" y1="142" x2="25" y2="121" style="stroke:#000000;stroke-width:3" />
    <line x1="25" y1="121" x2="46" y2="121" style="stroke:#000000;stroke-width:3" />
    <line x1="46" y1="121" x2="46" y2="142" style="stroke:#000000;stroke-width:3" />
    <line x1="46" y1="142" x2="89" y2="142" style="stroke:#ff0000;stroke-width:3" />
    <line x1="89" y1="142" x2="74" y2="127" style="stroke:#ff0000;stroke-width:3" />
    <line x1="89" y1="142" x2="74" y2="157" style="stroke:#ff0000;stroke-width:3" />
	<path d = "M185 185 L185 99 L99 99 L99 185 L185 185 Z" stroke = "#000000" stroke-width = "3" fill = "none" />    <line x1="110" y1="142" x2="110" y2="121" style="stroke:#000000;stroke-width:3" />
    <line x1="110" y1="121" x2="131" y2="121" style="stroke:#000000;stroke-width:3" />
    <line x1="131" y1="121" x2="131" y2="142" style="stroke:#000000;stroke-width:3" />
    <line x1="131" y1="142" x2="174" y2="142" style="stroke:#ff0000;stroke-width:3" />
    <line x1="174" y1="142" x2="159" y2="127" style="stroke:#ff0000;stroke-width:3" />
    <line x1="174" y1="142" x2="159" y2="157" style="stroke:#ff0000;stroke-width:3" />
	<path d = "M270 185 L270 99 L185 99 L185 185 L270 185 Z" stroke = "#000000" stroke-width = "3" fill = "none" />    <line x1="195" y1="142" x2="195" y2="121" style="stroke:#000000;stroke-width:3" />
    <line x1="195" y1="121" x2="217" y2="121" style="stroke:#000000;stroke-width:3" />
    <line x1="217" y1="121" x2="217" y2="142" style="stroke:#000000;stroke-width:3" />
    <line x1="217" y1="142" x2="259" y2="142" style="stroke:#ff0000;stroke-width:3" />
    <line x1="259" y1="142" x2="244" y2="127" style="stroke:#ff0000;stroke-width:3" />
    <line x1="259" y1="142" x2="244" y2="157" style="stroke:#ff0000;stroke-width:3" />
	<path d = "M355 185 L355 99 L270 99 L270 185 L355 185 Z" stroke = "#000000" stroke-width = "3" fill = "none" />    <line x1="280" y1="142" x2="280" y2="121" style="stroke:#000000;stroke-width:3" />
    <line x1="280" y1="121" x2="302" y2="121" style="stroke:#000000;stroke-width:3" />
    <line x1="302" y1="121" x2="302" y2="142" style="stroke:#000000;stroke-width:3" />
    <line x1="302" y1="142" x2="344" y2="142" style="stroke:#ff0000;stroke-width:3" />
    <line x1="344" y1="142" x2="329" y2="127" style="stroke:#ff0000;stroke-width:3" />
    <line x1="344" y1="142" x2="329" y2="157" style="stroke:#ff0000;stroke-width:3" />
	<path d = "M440 185 L440 99 L355 99 L355 185 L440 185 Z" stroke = "#000000" stroke-width = "3" fill = "none" />    <line x1="419" y1="163" x2="419" y2="142" style="stroke:#000000;stroke-width:3" />
    <line x1="419" y1="142" x2="398" y2="142" style="stroke:#000000;stroke-width:3" />
    <line x1="398" y1="142" x2="398" y2="163" style="stroke:#000000;stroke-width:3" />
    <line x1="398" y1="163" x2="387" y2="163" style="stroke:#000000;stroke-width:3" />
    <line x1="387" y1="163" x2="387" y2="121" style="stroke:#008000;stroke-width:3" />
    <line x1="387" y1="121" x2="372" y2="136" style="stroke:#008000;stroke-width:3" />
    <line x1="387" y1="121" x2="402" y2="136" style="stroke:#008000;stroke-width:3" />
	<path d = "M525 185 L525 99 L440 99 L440 185 L525 185 Z" stroke = "#000000" stroke-width = "3" fill = "none" />    <line x1="515" y1="142" x2="515" y2="121" style="stroke:#000000;stroke-width:3" />
    <line x1="515" y1="121" x2="493" y2="121" style="stroke:#000000;stroke-width:3" />
    <line x1="493" y1="121" x2="493" y2="142" style="stroke:#000000;stroke-width:3" />
    <line x1="493" y1="142" x2="451" y2="142" style="stroke:#ff0000;stroke-width:3" />
    <line x1="451" y1="142" x2="466" y2="127" style="stroke:#ff0000;stroke-width:3" />
    <line x1="451" y1="142" x2="466" y2="157" style="stroke:#ff0000;stroke-width:3" />
	<path d = "M611 185 L611 99 L525 99 L525 185 L611 185 Z" stroke = "#000000" stroke-width = "3" fill = "none" />    <line x1="600" y1="142" x2="600" y2="121" style="stroke:#000000;stroke-width:3" />
    <line x1="600" y1="121" x2="579" y2="121" style="stroke:#000000;stroke-width:3" />
    <line x1="579" y1="121" x2="579" y2="142" style="stroke:#000000;stroke-width:3" />
    <line x1="579" y1="142" x2="536" y2="142" style="stroke:#ff0000;stroke-width:3" />
    <line x1="536" y1="142" x2="551" y2="127" style="stroke:#ff0000;stroke-width:3" />
    <line x1="536" y1="142" x2="551" y2="157" style="stroke:#ff0000;stroke-width:3" />
	<path d = "M696 185 L696 99 L611 99 L611 185 L696 185 Z" stroke = "#000000" stroke-width = "3" fill = "none" />    <line x1="685" y1="142" x2="685" y2="121" style="stroke:#000000;stroke-width:3" />
    <line x1="685" y1="121" x2="664" y2="121" style="stroke:#000000;stroke-width:3" />
    <line x1="664" y1="121" x2="664" y2="142" style="stroke:#000000;stroke-width:3" />
    <line x1="664" y1="142" x2="621" y2="142" style="stroke:#ff0000;stroke-width:3" />
    <line x1="621" y1="142" x2="636" y2="127" style="stroke:#ff0000;stroke-width:3" />
    <line x1="621" y1="142" x2="636" y2="157" style="stroke:#ff0000;stroke-width:3" />
	<path d = "M99 312 L99 227 L14 227 L14 312 L99 312 Z" stroke = "#000000" stroke-width = "3" fill = "none" />    <line x1="89" y1="270" x2="89" y2="249" style="stroke:#000000;stroke-width:3" />
    <line x1="89" y1="249" x2="67" y2="249" style="stroke:#000000;stroke-width:3" />
    <line x1="67" y1="249" x2="67" y2="270" style="stroke:#000000;stroke-width:3" />
    <line x1="67" y1="270" x2="25" y2="270" style="stroke:#ff0000;stroke-width:3" />
    <line x1="25" y1="270" x2="40" y2="255" style="stroke:#ff0000;stroke-width:3" />
    <line x1="25" y1="270" x2="40" y2="285" style="stroke:#ff0000;stroke-width:3" />
	<path d = "M185 312 L185 227 L99 227 L99 312 L185 312 Z" stroke = "#000000" stroke-width = "3" fill = "none" />    <line x1="163" y1="291" x2="163" y2="270" style="stroke:#000000;stroke-width:3" />
    <line x1="163" y1="270" x2="142" y2="270" style="stroke:#000000;stroke-width:3" />
    <line x1="142" y1="270" x2="142" y2="291" style="stroke:#000000;stroke-width:3" />
    <line x1="142" y1="291" x2="131" y2="291" style="stroke:#000000;stroke-width:3" />
    <line x1="131" y1="291" x2="131" y2="249" style="stroke:#008000;stroke-width:3" />
    <line x1="131" y1="249" x2="116" y2="264" style="stroke:#008000;stroke-width:3" />
    <line x1="131" y1="249" x2="146" y2="264" style="stroke:#008000;stroke-width:3" />
	<path d = "M270 312 L270 227 L185 227 L185 312 L270 312 Z" stroke = "#000000" stroke-width = "3" fill = "none" />    <line x1="195" y1="270" x2="195" y2="249" style="stroke:#000000;stroke-width:3" />
    <line x1="195" y1="249" x2="217" y2="249" style="stroke:#000000;stroke-width:3" />
    <line x1="217" y1="249" x2="217" y2="270" style="stroke:#000000;stroke-width:3" />
    <line x1="217" y1="270" x2="259" y2="270" style="stroke:#ff0000;stroke-width:3" />
    <line x1="259" y1="270" x2="244" y2="255" style="stroke:#ff0000;stroke-width:3" />
    <line x1="259" y1="270" x2="244" y2="285" style="stroke:#ff0000;stroke-width:3" />
	<path d = "M355 312 L355 227 L270 227 L270 312 L355 312 Z" stroke = "#000000" stroke-width = "3" fill = "none" />    <line x1="280" y1="270" x2="280" y2="249" style="stroke:#000000;stroke-width:3" />
    <line x1="280" y1="249" x2="302" y2="249" style="stroke:#000000;stroke-width:3" />
    <line x1="302" y1="249" x2="302" y2="270" style="stroke:#000000;stroke-width:3" />
    <line x1="302" y1="270" x2="344" y2="270" style="stroke:#ff0000;stroke-width:3" />
    <line x1="344" y1="270" x2="329" y2="255" style="stroke:#ff0000;stroke-width:3" />
    <line x1="344" y1="270" x2="329" y2="285" style="stroke:#ff0000;stroke-width:3" />
	<path d = "M440 312 L440 227 L355 227 L355 312 L440 312 Z" stroke = "#000000" stroke-width = "3" fill = "none" />    <line x1="366" y1="270" x2="366" y2="249" style="stroke:#000000;stroke-width:3" />
    <line x1="366" y1="249" x2="387" y2="249" style="stroke:#000000;stroke-width:3" />
    <line x1="387" y1="249" x2="387" y2="270" style="stroke:#000000;stroke-width:3" />
    <line x1="387" y1="270" x2="430" y2="270" style="stroke:#ff0000;stroke-width:3" />
    <line x1="430" y1="270" x2="414" y2="255" style="stroke:#ff0000;stroke-width:3" />
    <line x1="430" y1="270" x2="414" y2="285" style="stroke:#ff0000;stroke-width:3" />
	<path d = "M525 312 L525 227 L440 227 L440 312 L525 312 Z" stroke = "#000000" stroke-width = "3" fill = "none" />    <line x1="451" y1="270" x2="451" y2="249" style="stroke:#000000;stroke-width:3" />
    <line x1="451" y1="249" x2="472" y2="249" style="stroke:#000000;stroke-width:3" />
    <line x1="472" y1="249" x2="472" y2="270" style="stroke:#000000;stroke-width:3" />
    <line x1="472" y1="270" x2="515" y2="270" style="stroke:#ff0000;stroke-width:3" />
    <line x1="515" y1="270" x2="500" y2="255" style="stroke:#ff0000;stroke-width:3" />
    <line x1="515" y1="270" x2="500" y2="285" style="stroke:#ff0000;stroke-width:3" />
	<path d = "M611 312 L611 227 L525 227 L525 312 L611 312 Z" stroke = "#000000" stroke-width = "3" fill = "none" />    <line x1="589" y1="291" x2="589" y2="270" style="stroke:#000000;stroke-width:3" />
    <line x1="589" y1="270" x2="568" y2="270" style="stroke:#000000;stroke-width:3" />
    <line x1="568" y1="270" x2="568" y2="291" style="stroke:#000000;stroke-width:3" />
    <line x1="568" y1="291" x2="557" y2="291" style="stroke:#000000;stroke-width:3" />
    <line x1="557" y1="291" x2="557" y2="249" style="stroke:#008000;stroke-width:3" />
    <line x1="557" y1="249" x2="542" y2="264" style="stroke:#008000;stroke-width:3" />
    <line x1="557" y1="249" x2="572" y2="264" style="stroke:#008000;stroke-width:3" />
	<path d = "M696 312 L696 227 L611 227 L611 312 L696 312 Z" stroke = "#000000" stroke-width = "3" fill = "none" />    <line x1="685" y1="270" x2="685" y2="249" style="stroke:#000000;stroke-width:3" />
    <line x1="685" y1="249" x2="664" y2="249" style="stroke:#000000;stroke-width:3" />
    <line x1="664" y1="249" x2="664" y2="270" style="stroke:#000000;stroke-width:3" />
    <line x1="664" y1="270" x2="621" y2="270" style="stroke:#ff0000;stroke-width:3" />
    <line x1="621" y1="270" x2="636" y2="255" style="stroke:#ff0000;stroke-width:3" />
    <line x1="621" y1="270" x2="636" y2="285" style="stroke:#ff0000;stroke-width:3" />
	<path d = "M99 440 L99 355 L14 355 L14 440 L99 440 Z" stroke = "#000000" stroke-width = "3" fill = "none" />    <line x1="89" y1="398" x2="89" y2="376" style="stroke:#000000;stroke-width:3" />
    <line x1="89" y1="376" x2="67" y2="376" style="stroke:#000000;stroke-width:3" />
    <line x1="67" y1="376" x2="67" y2="398" style="stroke:#000000;stroke-width:3" />
    <line x1="67" y1="398" x2="25" y2="398" style="stroke:#ff0000;stroke-width:3" />
    <line x1="25" y1="398" x2="40" y2="383" style="stroke:#ff0000;stroke-width:3" />
    <line x1="25" y1="398" x2="40" y2="413" style="stroke:#ff0000;stroke-width:3" />
	<path d = "M185 440 L185 355 L99 355 L99 440 L185 440 Z" stroke = "#000000" stroke-width = "3" fill = "none" />    <line x1="174" y1="398" x2="174" y2="376" style="stroke:#000000;stroke-width:3" />
    <line x1="174" y1="376" x2="153" y2="376" style="stroke:#000000;stroke-width:3" />
    <line x1="153" y1="376" x2="153" y2="398" style="stroke:#000000;stroke-width:3" />
    <line x1="153" y1="398" x2="110" y2="398" style="stroke:#ff0000;stroke-width:3" />
    <line x1="110" y1="398" x2="125" y2="383" style="stroke:#ff0000;stroke-width:3" />
    <line x1="110" y1="398" x2="125" y2="413" style="stroke:#ff0000;stroke-width:3" />
	<path d = "M270 440 L270 355 L185 355 L185 440 L270 440 Z" stroke = "#000000" stroke-width = "3" fill = "none" />    <line x1="259" y1="398" x2="259" y2="376" style="stroke:#000000;stroke-width:3" />
    <line x1="259" y1="376" x2="238" y2="376" style="stroke:#000000;stroke-width:3" />
    <line x1="238" y1="376" x2="238" y2="398" style="stroke:#000000;stroke-width:3" />
    <line x1="238" y1="398" x2="195" y2="398" style="stroke:#ff0000;stroke-width:3" />
    <line x1="195" y1="398" x2="210" y2="383" style="stroke:#ff0000;stroke-width:3" />
    <line x1="195" y1="398" x2="210" y2="413" style="stroke:#ff0000;stroke-width:3" />
	<path d = "M355 440 L355 355 L270 355 L270 440 L355 440 Z" stroke = "#000000" stroke-width = "3" fill = "none" />    <line x1="280" y1="398" x2="280" y2="376" style="stroke:#000000;stroke-width:3" />
    <line x1="280" y1="376" x2="302" y2="376" style="stroke:#000000;stroke-width:3" />
    <line x1="302" y1="376" x2="302" y2="398" style="stroke:#000000;stroke-width:3" />
    <line x1="302" y1="398" x2="344" y2="398" style="stroke:#ff0000;stroke-width:3" />
    <line x1="344" y1="398" x2="329" y2="383" style="stroke:#ff0000;stroke-width:3" />
    <line x1="344" y1="398" x2="329" y2="413" style="stroke:#ff0000;stroke-width:3" />
	<path d = "M440 440 L440 355 L355 355 L355 440 L440 440 Z" stroke = "#000000" stroke-width = "3" fill = "none" />    <line x1="366" y1="398" x2="366" y2="376" style="stroke:#000000;stroke-width:3" />
    <line x1="366" y1="376" x2="387" y2="376" style="stroke:#000000;stroke-width:3" />
    <line x1="387" y1="376" x2="387" y2="398" style="stroke:#000000;stroke-width:3" />
    <line x1="387" y1="398" x2="430" y2="398" style="stroke:#ff0000;stroke-width:3" />
    <line x1="430" y1="398" x2="414" y2="383" style="stroke:#ff0000;stroke-width:3" />
    <line x1="430" y1="398" x2="414" y2="413" style="stroke:#ff0000;stroke-width:3" />
	<path d = "M525 440 L525 355 L440 355 L440 440 L525 440 Z" stroke = "#000000" stroke-width = "3" fill = "none" />    <line x1="451" y1="398" x2="451" y2="376" style="stroke:#000000;stroke-width:3" />
    <line x1="451" y1="376" x2="472" y2="376" style="stroke:#000000;stroke-width:3" />
    <line x1="472" y1="376" x2="472" y2="398" style="stroke:#000000;stroke-width:3" />
    <line x1="472" y1="398" x2="515" y2="398" style="stroke:#ff0000;stroke-width:3" />
    <line x1="515" y1="398" x2="500" y2="383" style="stroke:#ff0000;stroke-width:3" />
    <line x1="515" y1="398" x2="500" y2="413" style="stroke:#ff0000;stroke-width:3" />
	<path d = "M611 440 L611 355 L525 355 L525 440 L611 440 Z" stroke = "#000000" stroke-width = "3" fill = "none" />    <line x1="536" y1="398" x2="536" y2="376" style="stroke:#000000;stroke-width:3" />
    <line x1="536" y1="376" x2="557" y2="376" style="stroke:#000000;stroke-width:3" />
    <line x1="557" y1="376" x2="557" y2="398" style="stroke:#000000;stroke-width:3" />
    <line x1="557" y1="398" x2="600" y2="398" style="stroke:#ff0000;stroke-width:3" />
    <line x1="600" y1="398" x2="585" y2="383" style="stroke:#ff0000;stroke-width:3" />
    <line x1="600" y1="398" x2="585" y2="413" style="stroke:#ff0000;stroke-width:3" />
	<path d = "M696 440 L696 355 L611 355 L611 440 L696 440 Z" stroke = "#000000" stroke-width = "3" fill = "none" />    <line x1="675" y1="387" x2="675" y2="366" style="stroke:#000000;stroke-width:3" />
    <line x1="675" y1="366" x2="653" y2="366" style="stroke:#000000;stroke-width:3" />
    <line x1="653" y1="366" x2="653" y2="387" style="stroke:#000000;stroke-width:3" />
    <line x1="653" y1="387" x2="643" y2="387" style="stroke:#000000;stroke-width:3" />
    <line x1="643" y1="387" x2="643" y2="430" style="stroke:#008000;stroke-width:3" />
    <line x1="643" y1="430" x2="658" y2="414" style="stroke:#008000;stroke-width:3" />
    <line x1="643" y1="430" x2="627" y2="414" style="stroke:#008000;stroke-width:3" />
	<path d = "M99 568 L99 483 L14 483 L14 568 L99 568 Z" stroke = "#000000" stroke-width = "3" fill = "none" /><circle cx="57" cy = "525" r = "3" stroke = "#008000" stroke-width = "3" fill = "#008000" />
    <line x1="57" y1="525" x2="20" y2="547" style="stroke:#008000;stroke-width:3" />
	<path d = "M20 547 L31 547 L25 537 L20 547 Z" stroke = "#008000" stroke-width = "3" fill = "#008000" /> M57,525 C20,547 	<path d = "M185 568 L185 483 L99 483 L99 568 L185 568 Z" stroke = "#000000" stroke-width = "3" fill = "none" /><circle cx="142" cy = "525" r = "3" stroke = "#008000" stroke-width = "3" fill = "#008000" />
    <line x1="142" y1="525" x2="105" y2="547" style="stroke:#008000;stroke-width:3" />
	<path d = "M105 547 L116 547 L110 537 L105 547 Z" stroke = "#008000" stroke-width = "3" fill = "#008000" /> M142,525 C105,547 	<path d = "M270 568 L270 483 L185 483 L185 568 L270 568 Z" stroke = "#000000" stroke-width = "3" fill = "none" /><circle cx="227" cy = "525" r = "3" stroke = "#008000" stroke-width = "3" fill = "#008000" />
    <line x1="227" y1="525" x2="190" y2="547" style="stroke:#008000;stroke-width:3" />
	<path d = "M190 547 L201 547 L196 537 L190 547 Z" stroke = "#008000" stroke-width = "3" fill = "#008000" /> M227,525 C190,547 	<path d = "M355 568 L355 483 L270 483 L270 568 L355 568 Z" stroke = "#000000" stroke-width = "3" fill = "none" />    <line x1="312" y1="525" x2="270" y2="525" style="stroke:#ff0000;stroke-width:3" />
	<path d = "M270 525 L279 531 L279 520 L270 525 Z" stroke = "#ff0000" stroke-width = "3" fill = "#ff0000" /> M312,525 C270,525 	<path d = "M440 568 L440 483 L355 483 L355 568 L440 568 Z" stroke = "#000000" stroke-width = "3" fill = "none" />    <line x1="398" y1="525" x2="355" y2="525" style="stroke:#ff0000;stroke-width:3" />
	<path d = "M355 525 L364 531 L364 520 L355 525 Z" stroke = "#ff0000" stroke-width = "3" fill = "#ff0000" /> M398,525 C355,525 	<path d = "M525 568 L525 483 L440 483 L440 568 L525 568 Z" stroke = "#000000" stroke-width = "3" fill = "none" />    <line x1="483" y1="525" x2="440" y2="525" style="stroke:#ff0000;stroke-width:3" />
	<path d = "M440 525 L449 531 L449 520 L440 525 Z" stroke = "#ff0000" stroke-width = "3" fill = "#ff0000" /> M483,525 C440,525 	<path d = "M611 568 L611 483 L525 483 L525 568 L611 568 Z" stroke = "#000000" stroke-width = "3" fill = "none" />    <line x1="568" y1="525" x2="525" y2="525" style="stroke:#ff0000;stroke-width:3" />
	<path d = "M525 525 L535 531 L535 520 L525 525 Z" stroke = "#ff0000" stroke-width = "3" fill = "#ff0000" /> M568,525 C525,525 <circle cx="653" cy = "525" r = "21.3" stroke = "#000000" stroke-width = "3" fill = "none" />
</svg>